<?xml version="1.0" encoding="utf-8"?>
<!-- Generator: Adobe Illustrator 27.5.0, SVG Export Plug-In . SVG Version: 6.00 Build 0)  -->
<svg version="1.1" xmlns="http://www.w3.org/2000/svg" xmlns:xlink="http://www.w3.org/1999/xlink" x="0px" y="0px"
	 viewBox="0 0 500 500" style="enable-background:new 0 0 500 500;" xml:space="preserve">
<g id="Background_complete">
	<g>
		<g>
			<g>
				<path style="fill:#E0E0E0;" d="M69.027,426.916c-0.017-0.537-1.824-53.86-10.497-62.293c-8.436-8.201-18.118-0.305-18.525,0.034
					l-0.87-1.042c0.11-0.093,11.036-9.012,20.341,0.035c9.063,8.813,10.836,61.006,10.907,63.224L69.027,426.916z"/>
			</g>
			<g>
				<path style="fill:#E0E0E0;" d="M69.771,437.395c-0.062-0.637-5.928-64.014,17.217-90.577l1.023,0.891
					c-22.761,26.122-16.951,88.922-16.89,89.553L69.771,437.395z"/>
			</g>
			<g>
				<path style="fill:#E0E0E0;" d="M68.916,430.691l-1.355-0.09c0.048-0.718,4.53-72.05-12.447-87.665l0.919-1
					C73.485,357.99,69.111,427.73,68.916,430.691z"/>
			</g>
			<g>
				<path style="fill:#E0E0E0;" d="M71.126,430.652l-1.357-0.011c0.017-1.965,0.56-48.182,13.688-55.705
					c2.919-1.674,5.776-1.953,8.494-0.829c7.938,3.284,11.872,17.411,12.036,18.011l-1.31,0.358
					c-0.038-0.141-3.922-14.087-11.246-17.115c-2.309-0.953-4.764-0.701-7.299,0.752C71.674,383.252,71.13,430.178,71.126,430.652z"
					/>
			</g>
			<g>
				<path style="fill:#E0E0E0;" d="M66.013,430.685l-1.355-0.077c0.021-0.365,1.981-36.522-7.778-49.262
					c-2.364-3.086-4.931-4.557-7.643-4.368c-6.394,0.447-11.756,9.803-11.808,9.897l-1.182-0.668
					c0.232-0.411,5.772-10.084,12.894-10.583c3.186-0.227,6.157,1.424,8.817,4.897C68.023,393.66,66.1,429.18,66.013,430.685z"/>
			</g>
			<g>
				<path style="fill:#E0E0E0;" d="M68.153,435.603c-0.266-3.508-6.379-86.068,4.377-100.616l1.091,0.806
					c-10.459,14.146-4.179,98.853-4.115,99.707L68.153,435.603z"/>
			</g>
		</g>
		<g>
			<path style="fill:#EBEBEB;" d="M94.876,382.475c0,0-6.453,2.379-4.534,7.995c1.919,5.616,22.324,14.859,22.324,14.859
				s8.546-7.833,0.698-20.572C105.515,372.019,95.05,378.456,94.876,382.475z"/>
		</g>
		<g>
			<path style="fill:#EBEBEB;" d="M66.824,371.784c0,0,6.871-0.288,7.262,5.634c0.39,5.922-14.886,22.306-14.886,22.306
				s-10.902-3.941-8.56-18.719C52.98,366.227,65.116,368.141,66.824,371.784z"/>
		</g>
		<g>
			<path style="fill:#EBEBEB;" d="M61.006,343.436c0,0,4.581-0.492,4.212-3.282c-0.369-2.79-17.809-9.973-28.099,1.641
				c0,0,6.589,11.318,16.113,11.466C62.757,353.408,61.006,343.436,61.006,343.436z"/>
		</g>
		<g>
			<path style="fill:#EBEBEB;" d="M69.543,336.659c0,0-4.148,2.006-5.311-0.558c-1.163-2.563,9.84-17.882,24.715-13.469
				c0,0,0.394,13.09-7.611,18.253C73.331,346.049,69.543,336.659,69.543,336.659z"/>
		</g>
		<g>
			<path style="fill:#EBEBEB;" d="M47.852,380.217c0,0,3.162-2.553-0.25-3.799c-3.412-1.246-20.155-0.892-20.329,15.693
				c0,0,19.5,3.241,21.913-3.077C51.6,382.717,47.852,380.217,47.852,380.217z"/>
		</g>
		<g>
			<path style="fill:#EBEBEB;" d="M87.616,343.02c0,0-3.162-2.553,0.25-3.799c3.412-1.246,20.155-0.892,20.329,15.693
				c0,0-19.5,3.241-21.913-3.077C83.868,345.52,87.616,343.02,87.616,343.02z"/>
		</g>
		<g>
			<path style="fill:#EBEBEB;" d="M77.307,356.38c0,0-0.278-3.103,2.227-1.887c2.505,1.216,11.234,10.633,2.186,19.568
				c0,0-12.179-9.02-9.984-13.717C73.932,355.647,77.307,356.38,77.307,356.38z"/>
		</g>
		<g>
			<path style="fill:#EBEBEB;" d="M45.026,360.802c0,0,1.89-2.477-0.878-2.784c-2.768-0.307-15.173,3.004-12.284,15.388
				c0,0,15.113-1.136,15.76-6.28C48.271,361.982,45.026,360.802,45.026,360.802z"/>
		</g>
		<polygon style="fill:#F0F0F0;" points="83.83,454.573 53.347,454.573 45.239,417.175 91.168,417.175 		"/>
		<rect x="42.473" y="416.633" style="fill:#E6E6E6;" width="51.34" height="10.755"/>
	</g>
	<g>
		<g>
			<g>
				<g>
					<g>
						<path style="fill:#E0E0E0;" d="M443.92,345.062H263.174c-3.232,0-5.862-2.63-5.862-5.862V75.926
							c0-3.232,2.63-5.862,5.862-5.862H443.92c3.232,0,5.862,2.629,5.862,5.862v263.273
							C449.783,342.432,447.153,345.062,443.92,345.062z M263.174,70.314c-3.095,0-5.612,2.518-5.612,5.612v263.273
							c0,3.095,2.518,5.612,5.612,5.612H443.92c3.095,0,5.612-2.517,5.612-5.612V75.926c0-3.094-2.518-5.612-5.612-5.612H263.174z"
							/>
					</g>
				</g>
				<g>
					<g>
						<path style="fill:#E0E0E0;" d="M235.493,345.062H54.746c-3.232,0-5.862-2.63-5.862-5.862V75.926
							c0-3.232,2.629-5.862,5.862-5.862h180.747c3.232,0,5.862,2.629,5.862,5.862v263.273
							C241.355,342.432,238.725,345.062,235.493,345.062z M54.746,70.314c-3.094,0-5.612,2.518-5.612,5.612v263.273
							c0,3.095,2.518,5.612,5.612,5.612h180.747c3.095,0,5.612-2.517,5.612-5.612V75.926c0-3.094-2.518-5.612-5.612-5.612H54.746z"
							/>
					</g>
				</g>
			</g>
			<g>
				<g>
					<rect x="0" y="406.131" style="fill:#E0E0E0;" width="500" height="0.25"/>
				</g>
			</g>
		</g>
		<rect x="51.672" y="420.396" style="fill:#E0E0E0;" width="16.06" height="0.25"/>
		<rect x="170.352" y="417.686" style="fill:#E0E0E0;" width="53.53" height="0.25"/>
		<rect x="68.732" y="429.686" style="fill:#E0E0E0;" width="36.25" height="0.25"/>
		<rect x="378.352" y="417.556" style="fill:#E0E0E0;" width="43.19" height="0.25"/>
		<rect x="430.452" y="417.556" style="fill:#E0E0E0;" width="6.33" height="0.25"/>
		<rect x="316.212" y="423.786" style="fill:#E0E0E0;" width="53.89" height="0.25"/>
	</g>
	<g>
		<g>
			<g>
				<g>
					<path style="fill:#F5F5F5;" d="M178.203,85.013c12.603-1.393,22.344-8.479,26.546-20.442
						c4.202-11.963,2.889-26.259-6.074-35.227c-4.585-4.588-10.705-7.866-17.186-8.127c-9.214-0.372-17.979,5.565-22.498,13.603
						c-4.519,8.039-6.091,16.266-4.445,25.34c1.631,8.988,6.935,19.98,19.296,24.317c0,0-4.027,6.782-2.192,7.834
						c1.835,1.052,4.158-2.84,4.158-2.84s4.073,5.335,4.571,2.843C181.115,88.632,178.203,85.013,178.203,85.013z"/>
				</g>
				<g style="opacity:0.3;">
					<path style="fill:#FFFFFF;" d="M161.848,56.019c-1.717,0.263-3.435,0.525-5.152,0.787c-1.08-5.749-0.385-11.819,1.966-17.176
						c2.352-5.356,6.35-9.976,11.314-13.072c0,0-5.465,7.985-7.102,14.933C161.101,49.021,161.848,56.019,161.848,56.019z"/>
				</g>
			</g>
		</g>
	</g>
	<g>
		<g>
			<g>
				<g>
					<path style="fill:#EBEBEB;" d="M334.589,106.111c9.971-7.431,14.697-18.259,12.317-30.464
						c-2.38-12.205-10.583-23.649-22.615-26.789c-6.155-1.606-12.958-1.344-18.571,1.65c-7.98,4.257-12.45,13.627-12.285,22.67
						c0.165,9.043,2.917,16.783,8.811,23.643c5.839,6.795,15.779,13.463,28.389,10.999c0,0-0.042,7.736,2.032,7.715
						c2.075-0.02,2.108-4.466,2.108-4.466s6.093,2.493,5.278,0.138C338.848,107.728,334.589,106.111,334.589,106.111z"/>
				</g>
				<g style="opacity:0.3;">
					<path style="fill:#FFFFFF;" d="M306.368,89.695c-1.323,1.074-2.645,2.148-3.968,3.222c-3.766-4.328-6.19-9.808-6.857-15.506
						c-0.668-5.698,0.423-11.59,3.086-16.672c0,0-0.662,9.466,1.4,16.156C302.265,84.146,306.368,89.695,306.368,89.695z"/>
				</g>
			</g>
		</g>
	</g>
	<g>
		<g>
			<g>
				<g>
					<path style="fill:#EBEBEB;" d="M101.922,138.489c9.449-4.558,15.097-12.77,15.08-23.26
						c-0.017-10.49-4.979-21.283-14.442-25.811c-4.841-2.316-10.518-3.188-15.646-1.607c-7.291,2.248-12.494,9.294-13.806,16.81
						c-1.312,7.516-0.272,14.368,3.512,20.994c3.748,6.563,10.913,13.678,21.752,13.657c0,0-1.274,6.4,0.448,6.716
						c1.722,0.316,2.461-3.361,2.461-3.361s4.647,3.041,4.349,0.959C105.19,140.511,101.922,138.489,101.922,138.489z"/>
				</g>
				<g style="opacity:0.3;">
					<path style="fill:#FFFFFF;" d="M81.176,120.373c-1.268,0.678-2.535,1.355-3.802,2.033c-2.426-4.188-3.556-9.115-3.197-13.942
						c0.359-4.827,2.206-9.532,5.226-13.315c0,0-2.064,7.735-1.427,13.606C78.666,115.119,81.176,120.373,81.176,120.373z"/>
				</g>
			</g>
		</g>
	</g>
	<g>
		<path style="fill:#F5F5F5;" d="M54.245,302.478c9.984,3.222,19.738,1.177,26.966-6.427c7.227-7.604,11.084-18.839,7.36-28.646
			c-1.905-5.017-5.412-9.566-10.215-11.96c-6.828-3.405-15.456-1.896-21.592,2.638c-6.136,4.535-10.112,10.211-11.946,17.617
			c-1.817,7.336-1.541,17.43,6.318,24.895c0,0-5.339,3.753-4.31,5.169c1.028,1.417,4.101-0.734,4.101-0.734s1.265,5.408,2.486,3.696
			C55.215,306.197,54.245,302.478,54.245,302.478z"/>
	</g>
	<g>
		<g>
			<path style="fill:#EBEBEB;" d="M427.099,312.802c9.984,3.222,19.738,1.176,26.966-6.427c7.227-7.604,11.084-18.839,7.36-28.646
				c-1.905-5.017-5.412-9.566-10.215-11.961c-6.828-3.405-15.456-1.896-21.592,2.638c-6.136,4.535-10.112,10.211-11.946,17.617
				c-1.817,7.337-1.541,17.43,6.318,24.895c0,0-5.339,3.753-4.31,5.169c1.028,1.417,4.101-0.734,4.101-0.734
				s1.265,5.408,2.486,3.696C428.07,316.521,427.099,312.802,427.099,312.802z"/>
		</g>
		<g style="opacity:0.3;">
			<path style="fill:#FFFFFF;" d="M424.587,285.374c-1.385-0.384-2.77-0.768-4.155-1.152c1.134-4.705,3.717-9.051,7.308-12.296
				c3.591-3.245,8.175-5.376,12.971-6.03c0,0-6.832,4.173-10.423,8.862C426.396,279.84,424.587,285.374,424.587,285.374z"/>
		</g>
	</g>
	<g>
		<g>
			<path style="fill:#EBEBEB;" d="M256.188,425.762c8.755-5.78,13.255-14.673,11.836-25.067
				c-1.419-10.394-7.779-20.426-17.762-23.649c-5.107-1.648-10.85-1.754-15.721,0.499c-6.925,3.202-11.14,10.88-11.435,18.504
				c-0.295,7.624,1.651,14.276,6.286,20.336c4.591,6.004,12.644,12.096,23.382,10.627c0,0-0.407,6.513,1.342,6.596
				c1.748,0.082,1.99-3.66,1.99-3.66s5.012,2.392,4.438,0.37C259.697,427.328,256.188,425.762,256.188,425.762z"/>
		</g>
		<g style="opacity:0.3;">
			<path style="fill:#FFFFFF;" d="M233.207,410.581c-1.165,0.841-2.331,1.682-3.497,2.523c-2.964-3.826-4.742-8.558-5.031-13.389
				c-0.289-4.831,0.913-9.742,3.4-13.894c0,0-1.012,7.941,0.404,13.675C230.017,405.71,233.207,410.581,233.207,410.581z"/>
		</g>
	</g>
	<g>
		<g>
			<path style="fill:#EBEBEB;" d="M307.758,346.936c-9.654,4.105-15.685,12.04-16.165,22.52c-0.48,10.48,3.965,21.495,13.203,26.466
				c4.726,2.543,10.355,3.683,15.553,2.346c7.39-1.9,12.92-8.691,14.587-16.137c1.666-7.446,0.952-14.34-2.513-21.137
				c-3.433-6.734-10.253-14.179-21.081-14.672c0,0,1.576-6.333-0.129-6.73c-1.705-0.397-2.618,3.241-2.618,3.241
				s-4.498-3.258-4.299-1.164C304.589,344.762,307.758,346.936,307.758,346.936z"/>
		</g>
		<g style="opacity:0.3;">
			<path style="fill:#FFFFFF;" d="M327.622,366.015c1.298-0.617,2.596-1.234,3.895-1.851c2.225,4.298,3.12,9.273,2.533,14.078
				c-0.588,4.804-2.656,9.417-5.851,13.052c0,0,2.428-7.628,2.071-13.523C329.881,371.382,327.622,366.015,327.622,366.015z"/>
		</g>
	</g>
	<g>
		<g>
			<g>
				<g>
					<path style="fill:#F5F5F5;" d="M431.949,98.895c10.427-1.149,18.489-7.01,21.969-16.907s2.397-21.725-5.016-29.148
						c-3.793-3.797-8.855-6.511-14.217-6.729c-7.623-0.31-14.877,4.6-18.618,11.249c-3.741,6.65-5.044,13.457-3.684,20.964
						c1.347,7.437,5.732,16.533,15.959,20.124c0,0-3.334,5.61-1.815,6.481c1.518,0.871,3.441-2.349,3.441-2.349
						s3.368,4.415,3.781,2.354C434.357,101.89,431.949,98.895,431.949,98.895z"/>
				</g>
				<g style="opacity:0.3;">
					<path style="fill:#FFFFFF;" d="M418.425,74.901c-1.421,0.217-2.842,0.434-4.263,0.65c-0.892-4.757-0.316-9.779,1.631-14.21
						c1.947-4.431,5.256-8.252,9.364-10.813c0,0-4.523,6.605-5.88,12.353C417.809,69.112,418.425,74.901,418.425,74.901z"/>
				</g>
			</g>
		</g>
	</g>
</g>
<g id="Background_simple" style="display:none;">
	<g style="display:inline;">
		<path style="fill:#407BFF;" d="M191.53,48.792c-21.564,2.728-42.358,8.537-60.801,17.647
			c-21.736,10.738-43.946,27.466-37.386,49.347c12.11,40.395,70.206,41.13,58.607,68.291c-13.139,30.765-4.328,66.853,54.63,76.889
			c111.982,19.061,247.351-92.468,209.331-153.752C392.241,69.06,306.031,34.307,191.53,48.792z"/>
		<path style="opacity:0.9;fill:#FFFFFF;" d="M191.53,48.792c-21.564,2.728-42.358,8.537-60.801,17.647
			c-21.736,10.738-43.946,27.466-37.386,49.347c12.11,40.395,70.206,41.13,58.607,68.291c-13.139,30.765-4.328,66.853,54.63,76.889
			c111.982,19.061,247.351-92.468,209.331-153.752C392.241,69.06,306.031,34.307,191.53,48.792z"/>
	</g>
</g>
<g id="Shadow">
	<g>
		<g>
			<path style="fill:#F5F5F5;" d="M460.437,457.34c0,3.387-93.516,6.132-208.875,6.132s-208.875-2.746-208.875-6.132
				c0-3.387,93.517-6.132,208.875-6.132S460.437,453.953,460.437,457.34z"/>
		</g>
	</g>
</g>
<g id="Plant">
	<g>
		<g>
			<g>
				<g>
					<path style="fill:#263238;" d="M432.623,429.298c-0.016-0.497-1.689-49.874-9.72-57.683
						c-7.812-7.594-16.777-0.283-17.154,0.032l-0.805-0.965c0.102-0.086,10.22-8.345,18.836,0.032
						c8.392,8.161,10.034,56.491,10.1,58.545L432.623,429.298z"/>
				</g>
				<g>
					<path style="fill:#263238;" d="M433.313,439.002c-0.058-0.59-5.489-59.277,15.943-83.873l0.948,0.825
						c-21.077,24.189-15.696,82.341-15.64,82.926L433.313,439.002z"/>
				</g>
				<g>
					<path style="fill:#263238;" d="M432.52,432.794l-1.255-0.084c0.044-0.665,4.195-66.718-11.526-81.177l0.851-0.926
						C436.752,365.474,432.701,430.052,432.52,432.794z"/>
				</g>
				<g>
					<path style="fill:#263238;" d="M434.567,432.758l-1.257-0.01c0.015-1.819,0.519-44.616,12.675-51.582
						c2.703-1.55,5.349-1.808,7.866-0.767c7.351,3.041,10.993,16.123,11.145,16.678l-1.213,0.332
						c-0.036-0.13-3.632-13.044-10.414-15.848c-2.138-0.882-4.411-0.649-6.759,0.696
						C435.074,388.866,434.57,432.319,434.567,432.758z"/>
				</g>
				<g>
					<path style="fill:#263238;" d="M429.832,432.788l-1.254-0.071c0.019-0.338,1.834-33.819-7.202-45.616
						c-2.189-2.858-4.566-4.22-7.077-4.045c-5.921,0.414-10.885,9.078-10.935,9.165l-1.095-0.619c0.215-0.381,5.345-9.338,11.94-9.8
						c2.951-0.21,5.701,1.318,8.165,4.535C431.694,398.504,429.913,431.395,429.832,432.788z"/>
				</g>
				<g>
					<path style="fill:#263238;" d="M431.814,437.342c-0.246-3.248-5.907-79.698,4.053-93.17l1.01,0.746
						c-9.685,13.099-3.87,91.537-3.81,92.328L431.814,437.342z"/>
				</g>
			</g>
			<g>
				<path style="fill:#407BFF;" d="M458.363,384.62c0,0-6.357,2.349-4.199,7.403c6.08,14.242,20.574,15.76,20.574,15.76
					s6.801-10.766,1.226-19.127C468.278,377.127,458.524,380.898,458.363,384.62z"/>
			</g>
			<g>
				<path style="fill:#407BFF;" d="M430.583,378.246c0,0,6.363-0.266,6.725,5.217c0.362,5.484-13.785,20.655-13.785,20.655
					s-10.095-3.65-7.927-17.334C417.764,373.1,429.002,374.873,430.583,378.246z"/>
			</g>
			<g>
				<path style="fill:#407BFF;" d="M433.668,346.289c0,0-2.672-0.329-3.677-2.734c-2.998-7.174,7.304-14.909,21.079-10.822
					c0,0,0.365,12.121-7.048,16.902C436.609,354.416,433.668,346.289,433.668,346.289z"/>
			</g>
			<g>
				<path style="fill:#407BFF;" d="M410.063,383.879c0,0,2.217-3.04-1.133-3.338c-3.351-0.298-17.854,6.201-14.04,21.079
					c0,0,18.655-6.085,19.302-12.314C414.838,383.077,410.063,383.879,410.063,383.879z"/>
			</g>
			<g>
				<path style="fill:#407BFF;" d="M449.836,351.611c0,0,0.838-2.761,3.998-3.914c3.159-1.154,14.897-0.43,15.059,14.928
					c0,0-18.057,3.001-20.292-2.849C446.366,353.926,449.836,351.611,449.836,351.611z"/>
			</g>
			<g>
				<path style="fill:#407BFF;" d="M440.09,364.373c0,0,1.214-2.105,3.534-0.979c2.32,1.126,9.16,8.164,2.638,16.659
					c0,0-12.119-7.287-11.129-12.401C436.045,362.94,440.09,364.373,440.09,364.373z"/>
			</g>
			<g>
				<path style="fill:#407BFF;" d="M410.398,368.077c0,0,1.75-2.293-0.813-2.578c-2.563-0.284-14.05,2.782-11.375,14.249
					c0,0,13.994-1.052,14.594-5.815C413.404,369.17,410.398,368.077,410.398,368.077z"/>
			</g>
			
				<path style="opacity:0.3;fill:none;stroke:#000000;stroke-width:0.5;stroke-linecap:round;stroke-linejoin:round;stroke-miterlimit:10;" d="
				M422.273,399.064c-1.048-7.459,2.726-15.762,8.31-20.818"/>
			
				<path style="opacity:0.3;fill:none;stroke:#000000;stroke-width:0.5;stroke-linecap:round;stroke-linejoin:round;stroke-miterlimit:10;" d="
				M440.09,364.793c2.893,2.874,4.906,6.623,5.703,10.623"/>
			
				<path style="opacity:0.3;fill:none;stroke:#000000;stroke-width:0.5;stroke-linecap:round;stroke-linejoin:round;stroke-miterlimit:10;" d="
				M458.363,384.62c5.771,2.562,11.202,7.985,13.966,13.662"/>
			
				<path style="opacity:0.3;fill:none;stroke:#000000;stroke-width:0.5;stroke-linecap:round;stroke-linejoin:round;stroke-miterlimit:10;" d="
				M449.836,351.611c2.989-0.857,5.688,0.059,8.593,1.167c2.905,1.108,5.434,3.179,7.092,5.809"/>
			<g>
				<path style="fill:#407BFF;" d="M424.51,354.199c0,0,4.237,0.506,4.482-2.089c0.246-2.595-14.005-12.692-25.699-4.344
					c0,0,3.6,11.58,12.165,13.688C424.023,363.562,424.51,354.199,424.51,354.199z"/>
			</g>
			
				<path style="opacity:0.3;fill:none;stroke:#000000;stroke-width:0.5;stroke-linecap:round;stroke-linejoin:round;stroke-miterlimit:10;" d="
				M424.379,354.41c-4.456-5.988-15.392-7.934-19.116-6.585"/>
			
				<path style="opacity:0.3;fill:none;stroke:#000000;stroke-width:0.5;stroke-linecap:round;stroke-linejoin:round;stroke-miterlimit:10;" d="
				M410.526,368.285c-3.636,1.351-7.518,3.682-9.537,6.994"/>
			
				<path style="opacity:0.3;fill:none;stroke:#000000;stroke-width:0.5;stroke-linecap:round;stroke-linejoin:round;stroke-miterlimit:10;" d="
				M396.883,395.972c2.842-5.45,7.619-9.866,13.276-12.271"/>
			
				<path style="opacity:0.3;fill:none;stroke:#000000;stroke-width:0.5;stroke-linecap:round;stroke-linejoin:round;stroke-miterlimit:10;" d="
				M434.229,346c2.268-4.843,6.625-8.664,11.723-10.281"/>
		</g>
		<g>
			<polygon style="fill:#263238;" points="448.843,455.114 418.069,455.114 414.749,421.42 452.164,421.42 			"/>
			<rect x="413.106" y="417.703" style="fill:#263238;" width="40.701" height="7.435"/>
			<polygon style="opacity:0.3;" points="415.198,425.039 415.643,430.009 451.415,430.009 451.905,425.039 			"/>
		</g>
	</g>
</g>
<g id="Letter">
	<g>
		<polygon style="fill:#263238;" points="137.238,228.752 251.204,149.372 365.17,228.752 253.635,317.072 		"/>
		<rect x="148.867" y="103.513" style="fill:#407BFF;" width="204.676" height="199.443"/>
		<rect x="148.867" y="103.513" style="opacity:0.8;fill:#FFFFFF;" width="204.676" height="199.443"/>
		<polygon style="opacity:0.2;fill:#263238;" points="148.867,231.159 251.204,282.691 353.542,231.16 350.77,268.611 
			243.695,310.64 146.975,241.947 		"/>
		<g>
			<g>
				<rect x="170.2" y="234.484" style="fill:#263238;" width="73.496" height="4.184"/>
			</g>
			<rect x="170.2" y="234.484" style="opacity:0.7;fill:#FFFFFF;" width="73.496" height="4.184"/>
		</g>
		<g>
			<g>
				<rect x="248.747" y="234.484" style="fill:#263238;" width="94.026" height="4.184"/>
			</g>
			<rect x="248.747" y="234.484" style="opacity:0.7;fill:#FFFFFF;" width="94.026" height="4.184"/>
		</g>
		<g>
			<g>
				<rect x="180.477" y="254.708" style="fill:#263238;" width="148.688" height="4.184"/>
			</g>
			<rect x="180.477" y="254.708" style="opacity:0.7;fill:#FFFFFF;" width="148.688" height="4.184"/>
		</g>
		<g>
			<g>
				<rect x="195.776" y="264.83" style="fill:#263238;" width="117.9" height="4.184"/>
			</g>
			<rect x="195.776" y="264.83" style="opacity:0.7;fill:#FFFFFF;" width="117.9" height="4.184"/>
		</g>
		<g>
			<g>
				<rect x="196.797" y="275.086" style="fill:#263238;" width="117.9" height="4.184"/>
			</g>
			<rect x="196.797" y="275.086" style="opacity:0.7;fill:#FFFFFF;" width="117.9" height="4.184"/>
		</g>
		<g>
			<g>
				<rect x="170.2" y="244.586" style="fill:#263238;" width="107.877" height="4.184"/>
			</g>
			<rect x="170.2" y="244.586" style="opacity:0.7;fill:#FFFFFF;" width="107.877" height="4.184"/>
		</g>
		<g>
			<g>
				<rect x="282.151" y="244.586" style="fill:#263238;" width="47.013" height="4.184"/>
			</g>
			<rect x="282.151" y="244.586" style="opacity:0.7;fill:#FFFFFF;" width="47.013" height="4.184"/>
		</g>
		<polygon style="fill:#407BFF;" points="137.238,370.246 137.238,228.752 250.654,289.314 365.17,228.752 365.17,370.246 		"/>
		<g>
			<g>
				<g>
					<path style="fill:#407BFF;" d="M131.708,264.474c0,21.559,0,43.118,0,64.677c0,6.136,0,12.272,0,18.408
						c0,0.965,1.5,0.967,1.5,0c0-21.559,0-43.118,0-64.677c0-6.136,0-12.272,0-18.408
						C133.208,263.509,131.708,263.508,131.708,264.474L131.708,264.474z"/>
				</g>
			</g>
			<g>
				<g>
					<path style="fill:#407BFF;" d="M133.294,261.239c0-1.988,0-3.976,0-5.964c0-0.965-1.5-0.967-1.5,0c0,1.988,0,3.976,0,5.964
						C131.794,262.204,133.294,262.206,133.294,261.239L133.294,261.239z"/>
				</g>
			</g>
		</g>
		<polyline style="opacity:0.2;fill:none;stroke:#263238;stroke-miterlimit:10;" points="365.17,370.246 250.654,289.314 
			137.238,370.246 		"/>
		
			<ellipse transform="matrix(0.5507 -0.8347 0.8347 0.5507 -30.9032 216.9077)" style="fill:#407BFF;" cx="186.03" cy="137.159" rx="11.928" ry="11.928"/>
		<rect x="209.414" y="130.424" style="fill:#407BFF;" width="39.639" height="4.184"/>
		<g>
			<rect x="209.193" y="138.573" style="fill:#263238;" width="109.648" height="4.184"/>
		</g>
		<rect x="209.193" y="138.573" style="opacity:0.7;fill:#FFFFFF;" width="109.648" height="4.184"/>
		<g>
			<rect x="169.923" y="165.049" style="fill:#263238;" width="55.953" height="4.184"/>
		</g>
		<rect x="169.923" y="165.049" style="opacity:0.7;fill:#FFFFFF;" width="55.953" height="4.184"/>
		<g>
			<g>
				<rect x="169.432" y="176.364" style="fill:#263238;" width="83.949" height="4.184"/>
			</g>
			<rect x="169.432" y="176.364" style="opacity:0.7;fill:#FFFFFF;" width="83.949" height="4.184"/>
		</g>
		<g>
			<g>
				<rect x="251.562" y="186.111" style="fill:#263238;" width="83.95" height="4.184"/>
			</g>
			<rect x="251.562" y="186.111" style="opacity:0.7;fill:#FFFFFF;" width="83.95" height="4.184"/>
		</g>
		<g>
			<g>
				<rect x="170.2" y="186.111" style="fill:#263238;" width="73.496" height="4.184"/>
			</g>
			<rect x="170.2" y="186.111" style="opacity:0.7;fill:#FFFFFF;" width="73.496" height="4.184"/>
		</g>
		<g>
			<g>
				<rect x="260.864" y="176.364" style="fill:#263238;" width="20.185" height="4.184"/>
			</g>
			<rect x="260.864" y="176.364" style="opacity:0.7;fill:#FFFFFF;" width="20.185" height="4.184"/>
		</g>
		<g>
			<g>
				<rect x="286.596" y="176.364" style="fill:#263238;" width="48.915" height="4.184"/>
			</g>
			<rect x="286.596" y="176.364" style="opacity:0.7;fill:#FFFFFF;" width="48.915" height="4.184"/>
		</g>
		<g>
			<path style="fill:#407BFF;" d="M194.13,218.319h-8.155l-1.556,3.764h-4.165l7.829-17.565h4.015l7.854,17.565h-4.266
				L194.13,218.319z M192.851,215.233l-2.786-6.725l-2.785,6.725H192.851z"/>
			<path style="fill:#407BFF;" d="M201.783,204.519h7.98c1.907,0,3.592,0.364,5.056,1.091c1.463,0.728,2.601,1.752,3.413,3.074
				c0.811,1.322,1.217,2.861,1.217,4.617c0,1.757-0.406,3.296-1.217,4.617c-0.811,1.322-1.949,2.346-3.413,3.074
				c-1.464,0.727-3.149,1.091-5.056,1.091h-7.98V204.519z M209.563,218.746c1.756,0,3.157-0.489,4.203-1.468
				c1.045-0.979,1.568-2.304,1.568-3.978c0-1.672-0.523-2.999-1.568-3.977c-1.045-0.979-2.446-1.468-4.203-1.468h-3.714v10.89
				H209.563z"/>
			<path style="fill:#407BFF;" d="M238.494,222.083l-0.025-10.539l-5.169,8.682h-1.831l-5.144-8.457v10.313h-3.814v-17.565h3.363
				l6.574,10.915l6.474-10.915h3.337l0.05,17.565H238.494z"/>
			<path style="fill:#407BFF;" d="M246.474,204.519h4.065v17.565h-4.065V204.519z"/>
			<path style="fill:#407BFF;" d="M258.343,207.831h-5.621v-3.312h15.307v3.312h-5.621v14.253h-4.064V207.831z"/>
			<path style="fill:#407BFF;" d="M274.101,207.831h-5.621v-3.312h15.307v3.312h-5.621v14.253h-4.064V207.831z"/>
			<path style="fill:#407BFF;" d="M299.57,218.821v3.262H285.97v-17.565h13.274v3.262h-9.234v3.814h8.155v3.162h-8.155v4.065H299.57
				z"/>
			<path style="fill:#407BFF;" d="M302.807,204.519h7.98c1.907,0,3.592,0.364,5.056,1.091c1.464,0.728,2.602,1.752,3.413,3.074
				c0.812,1.322,1.217,2.861,1.217,4.617c0,1.757-0.405,3.296-1.217,4.617c-0.811,1.322-1.949,2.346-3.413,3.074
				c-1.464,0.727-3.148,1.091-5.056,1.091h-7.98V204.519z M310.585,218.746c1.757,0,3.157-0.489,4.203-1.468
				c1.046-0.979,1.568-2.304,1.568-3.978c0-1.672-0.522-2.999-1.568-3.977c-1.046-0.979-2.446-1.468-4.203-1.468h-3.714v10.89
				H310.585z"/>
		</g>
		<path style="opacity:0.2;enable-background:new    ;" d="M137.275,292.11c0,0.051,37.759,51.275,42.378,58.811
			c4.619,7.536,5.835,19.325,5.835,19.325h-16.619l-31.414-50.136L137.275,292.11z"/>
	</g>
</g>
<g id="Confetti">
	<path style="opacity:0.1;enable-background:new    ;" d="M338.559,370.549c0,0-1.362-12.789-0.243-37.351
		c1.119-24.563,12.938-63.823,12.938-63.823l-3.565-2.092l7.04-32.079l11.628-6.149l-8.067,141.494H338.559z"/>
	<g>
		<path style="fill:#407BFF;" d="M43.798,181.025l3.186-1.199c0,0-0.828,3.379,3.716,4.352l-2.89,2.081
			C47.811,186.26,43.916,184.806,43.798,181.025z"/>
		<path style="fill:#407BFF;" d="M222.093,81.704l0.983,3.259c0,0-3.316-1.052-4.591,3.417l-1.883-3.023
			C216.602,85.357,218.313,81.569,222.093,81.704z"/>
		<path style="fill:#407BFF;" d="M124.79,123.635l0.277-2.338c0,0,1.812,1.583,3.854-0.898l0.359,2.437
			C129.28,122.836,127.149,124.765,124.79,123.635z"/>
		<path style="fill:#407BFF;" d="M116.368,55.634l0.277-2.338c0,0,1.812,1.583,3.854-0.898l0.359,2.437
			C120.859,54.835,118.727,56.764,116.368,55.634z"/>
		<path style="fill:#407BFF;" d="M244.324,50.63l0.277-2.338c0,0,1.811,1.583,3.854-0.898l0.359,2.437
			C248.814,49.831,246.683,51.759,244.324,50.63z"/>
		<g>
			<path style="fill:#407BFF;" d="M88.074,85.152l0.401-3.381c0,0,2.62,2.289,5.574-1.299l0.519,3.524
				C94.567,83.996,91.485,86.786,88.074,85.152z"/>
			<path style="opacity:0.7;fill:#FFFFFF;" d="M88.074,85.152l0.401-3.381c0,0,2.62,2.289,5.574-1.299l0.519,3.524
				C94.567,83.996,91.485,86.786,88.074,85.152z"/>
		</g>
		<g>
			<path style="fill:#407BFF;" d="M138.025,87.148l3.01-1.591c0,0-0.396,3.457,4.235,3.85l-2.605,2.429
				C142.665,91.835,138.618,90.883,138.025,87.148z"/>
			<path style="opacity:0.7;fill:#FFFFFF;" d="M138.025,87.148l3.01-1.591c0,0-0.396,3.457,4.235,3.85l-2.605,2.429
				C142.665,91.835,138.618,90.883,138.025,87.148z"/>
		</g>
		<g>
			<path style="fill:#407BFF;" d="M264.278,77.013l3.01-1.591c0,0-0.396,3.457,4.235,3.85l-2.605,2.429
				C268.918,81.7,264.871,80.749,264.278,77.013z"/>
			<path style="opacity:0.7;fill:#FFFFFF;" d="M264.278,77.013l3.01-1.591c0,0-0.396,3.457,4.235,3.85l-2.605,2.429
				C268.918,81.7,264.871,80.749,264.278,77.013z"/>
		</g>
		<path style="fill:#407BFF;" d="M383.644,115.519l0.983,3.259c0,0-3.316-1.052-4.591,3.417l-1.883-3.023
			C378.153,119.172,379.864,115.383,383.644,115.519z"/>
		<path style="fill:#407BFF;" d="M410.055,151.38l-0.302-3.391c0,0,3.034,1.702,5.188-2.416l1.231,3.342
			C416.173,148.915,413.729,152.279,410.055,151.38z"/>
		<path style="fill:#407BFF;" d="M460.287,266.467l-0.302-3.391c0,0,3.034,1.702,5.188-2.416l1.231,3.342
			C466.404,264.003,463.961,267.366,460.287,266.467z"/>
		<path style="fill:#407BFF;" d="M38.581,289.314l-0.302-3.391c0,0,3.034,1.702,5.188-2.416l1.231,3.342
			C44.698,286.849,42.255,290.212,38.581,289.314z"/>
		<path style="fill:#407BFF;" d="M408.845,79.027l0.277-2.338c0,0,1.812,1.583,3.854-0.898l0.359,2.437
			C413.335,78.228,411.204,80.157,408.845,79.027z"/>
		<path style="fill:#407BFF;" d="M317.782,84.944l0.277-2.338c0,0,1.812,1.583,3.854-0.898l0.359,2.437
			C322.272,84.145,320.141,86.074,317.782,84.944z"/>
		<g>
			<path style="fill:#407BFF;" d="M431.044,102.201l3.01-1.591c0,0-0.396,3.457,4.235,3.85l-2.605,2.429
				C435.684,106.889,431.637,105.937,431.044,102.201z"/>
			<path style="opacity:0.7;fill:#FFFFFF;" d="M431.044,102.201l3.01-1.591c0,0-0.396,3.457,4.235,3.85l-2.605,2.429
				C435.684,106.889,431.637,105.937,431.044,102.201z"/>
		</g>
		<g>
			<path style="fill:#407BFF;" d="M455.24,147.742l3.01-1.591c0,0-0.396,3.457,4.235,3.85l-2.605,2.429
				C459.88,152.429,455.833,151.478,455.24,147.742z"/>
			<path style="opacity:0.7;fill:#FFFFFF;" d="M455.24,147.742l3.01-1.591c0,0-0.396,3.457,4.235,3.85l-2.605,2.429
				C459.88,152.429,455.833,151.478,455.24,147.742z"/>
		</g>
		<g>
			<path style="fill:#407BFF;" d="M434.666,301.408l3.01-1.591c0,0-0.396,3.456,4.235,3.85l-2.605,2.429
				C439.306,306.095,435.259,305.144,434.666,301.408z"/>
			<path style="opacity:0.7;fill:#FFFFFF;" d="M434.666,301.408l3.01-1.591c0,0-0.396,3.456,4.235,3.85l-2.605,2.429
				C439.306,306.095,435.259,305.144,434.666,301.408z"/>
		</g>
		<g>
			<path style="fill:#407BFF;" d="M47.691,330.051l3.01-1.591c0,0-0.396,3.457,4.235,3.85l-2.605,2.429
				C52.331,334.738,48.284,333.786,47.691,330.051z"/>
			<path style="opacity:0.7;fill:#FFFFFF;" d="M47.691,330.051l3.01-1.591c0,0-0.396,3.457,4.235,3.85l-2.605,2.429
				C52.331,334.738,48.284,333.786,47.691,330.051z"/>
		</g>
		<g>
			<path style="fill:#407BFF;" d="M366.507,82.538l0.971-3.263c0,0,2.191,2.702,5.714-0.33l-0.089,3.561
				C373.102,82.506,369.59,84.73,366.507,82.538z"/>
			<path style="opacity:0.7;fill:#FFFFFF;" d="M366.507,82.538l0.971-3.263c0,0,2.191,2.702,5.714-0.33l-0.089,3.561
				C373.102,82.506,369.59,84.73,366.507,82.538z"/>
		</g>
		<g>
			<path style="fill:#407BFF;" d="M326.162,48.223l0.971-3.263c0,0,2.191,2.702,5.714-0.33l-0.089,3.561
				C332.757,48.192,329.245,50.415,326.162,48.223z"/>
			<path style="opacity:0.7;fill:#FFFFFF;" d="M326.162,48.223l0.971-3.263c0,0,2.191,2.702,5.714-0.33l-0.089,3.561
				C332.757,48.192,329.245,50.415,326.162,48.223z"/>
		</g>
	</g>
</g>
<g id="Speech_Bubble">
	<g>
		<g>
			<g>
				<path style="fill:#407BFF;" d="M46.52,123.131c-1.015-10.843,6.951-20.456,17.794-21.471
					c10.843-1.015,20.456,6.951,21.471,17.794c0.784,8.371-3.797,15.99-10.91,19.505l-1.58,5.708l-4.98-3.788
					c-0.109,0.012-0.214,0.037-0.324,0.047C57.148,141.94,47.535,133.973,46.52,123.131z"/>
			</g>
			<path style="fill:none;stroke:#407BFF;stroke-width:0.5;stroke-linecap:round;stroke-linejoin:round;stroke-miterlimit:10;" d="
				M60.208,99.724c-6.274,1.319-11.736,6-14,11.998"/>
			<path style="fill:none;stroke:#407BFF;stroke-width:0.5;stroke-linecap:round;stroke-linejoin:round;stroke-miterlimit:10;" d="
				M45.267,114.509c-0.412,0.887-0.639,1.859-0.661,2.837"/>
		</g>
		<g>
			<path style="fill:#FFFFFF;" d="M66.152,131.795c-0.741,0-1.36-0.239-1.858-0.718c-0.497-0.479-0.746-1.062-0.746-1.749
				c0-0.687,0.244-1.261,0.732-1.722c0.488-0.461,1.112-0.692,1.871-0.692c0.759,0,1.383,0.23,1.871,0.692
				c0.488,0.461,0.732,1.035,0.732,1.722c0,0.688-0.248,1.271-0.746,1.749C67.513,131.555,66.894,131.795,66.152,131.795z
				 M67.834,124.988h-3.363l-0.841-12.393h5.044L67.834,124.988z"/>
		</g>
	</g>
</g>
<g id="Character_2">
	<g>
		<g>
			<g>
				<path style="fill:#263238;" d="M452.708,204.714c-0.02-2.392-1.723-4.793-4.08-5.2c2.094-0.788,4.082-2.243,4.825-4.353
					c0.743-2.11-0.209-4.868-2.345-5.534c-1.762-0.55-3.606,0.382-5.241,1.238c-2.452,1.284-5.217,2.491-7.904,1.829
					c-2.851-0.702-4.798-3.321-6.121-5.942c-1.324-2.621-2.324-5.493-4.366-7.603c-2.042-2.11-5.605-3.167-7.919-1.36l-1.537,8.725
					c0.629,7.371,1.99,15.111,6.989,20.563c5.173,5.641,10.414,7.283,17.729,6.183c2.365-0.356,4.737-1.052,6.657-2.478
					C451.315,209.356,452.728,207.106,452.708,204.714z"/>
			</g>
			<path d="M419.556,177.789c0.56,0.471,8.793,5.24,5.349,12.677c-3.444,7.437-5.435,5.561-5.435,5.561L419.556,177.789z"/>
			<path style="fill:#E9B376;" d="M393.93,211.367c1.561-0.68,2.146-1.469,2.572-3.182c0.344-1.311,0.45-2.772,0.466-4.229
				l2.386-1.162l11.904-4.756c-2.63,5.487-7.683,14.024-4.64,18.946c0,0,4.319,4.431,6.345,6.012
				c-1.913,0.545-22.013,10.457-30.076,6.153c-7.334-3.915,1.571-17.132,3.745-18.803
				C389.083,210.611,391.693,210.943,393.93,211.367z"/>
			<path style="opacity:0.2;" d="M396.198,208.907c2.619,0.376,6.703,0.123,8.356-2.391c0.68-1.034,1.145-2.142,1.37-2.912
				l-8.907,1.684C396.683,206.391,396.958,207.436,396.198,208.907z"/>
			<path style="fill:#E9B376;" d="M418.259,190.433c-4.511,8.143-6.244,11.676-12.581,14.199
				c-9.531,3.795-18.674-2.915-16.717-12.094c1.761-8.261,8.842-20.19,18.741-20.091
				C417.455,172.544,422.77,182.289,418.259,190.433z"/>
			<path style="fill:#263238;" d="M405.12,188.519c-0.328,0.805-1.064,1.307-1.645,1.12c-0.581-0.186-0.786-0.99-0.458-1.794
				c0.328-0.805,1.064-1.307,1.645-1.121C405.243,186.91,405.448,187.714,405.12,188.519z"/>
			<path style="fill:#263238;" d="M408.617,186.604c-0.113-0.037-0.208-0.117-0.257-0.232c-0.757-1.793-2.414-2.032-2.433-2.035
				c-0.246-0.035-0.41-0.257-0.36-0.501c0.051-0.244,0.294-0.414,0.544-0.381c0.087,0.012,2.167,0.31,3.106,2.536
				c0.093,0.222-0.023,0.487-0.259,0.593C408.844,186.634,408.723,186.638,408.617,186.604z"/>
			<path style="fill:#263238;" d="M397.019,179.301c-0.087-0.072-0.145-0.174-0.153-0.291c-0.019-0.24,0.176-0.45,0.434-0.468
				c2.59-0.185,3.922,1.397,3.977,1.466c0.157,0.191,0.117,0.464-0.09,0.611c-0.206,0.146-0.5,0.11-0.657-0.079
				c-0.051-0.063-1.103-1.275-3.162-1.128C397.235,179.42,397.111,179.377,397.019,179.301z"/>
			<path style="fill:#D58745;" d="M400.154,185.24c0,0-2.725,2.592-5.094,3.913c-0.414,0.231-0.474,0.807-0.133,1.136
				c0.878,0.847,2.258,1.037,2.258,1.037L400.154,185.24z"/>
			<path style="fill:#263238;" d="M404.962,186.926l-1.849-1.167C403.114,185.759,403.976,187.745,404.962,186.926z"/>
			<path style="fill:#263238;" d="M397.388,185.089c-0.328,0.805-1.064,1.307-1.645,1.12c-0.581-0.186-0.786-0.99-0.458-1.794
				c0.328-0.805,1.064-1.307,1.645-1.121C397.511,183.481,397.716,184.284,397.388,185.089z"/>
			<path style="fill:#263238;" d="M397.113,183.335l-1.849-1.167C395.264,182.168,396.126,184.154,397.113,183.335z"/>
			<path style="fill:#263238;" d="M409.581,202.565c5.162-1.091,11.766-6.389,13.313-12.663c1.613-6.541-1.579-13.349-9.042-16.948
				c-14.62-7.05-21.666,11.07-21.666,11.07c9.089-15.784,21.579-4.065,21.579-4.065c-5.48,5.567-1.291,12.222-1.291,12.222
				C412.799,197.563,409.581,202.565,409.581,202.565z"/>
			<path style="fill:#E9B376;" d="M417.783,198.478c-1.768,1.299-3.877,1.675-5.535,1.393c-2.494-0.425-2.065-4.546-0.308-6.459
				c1.582-1.722,4.379-2.092,6.37-0.688C420.272,194.106,419.805,196.992,417.783,198.478z"/>
			
				<path style="opacity:0.2;fill:none;stroke:#000000;stroke-width:0.5;stroke-linecap:round;stroke-linejoin:round;stroke-miterlimit:10;" d="
				M415.813,194.213c0.841,0.01,1.407,0.793,1.407,1.491c0,0.845-1.075,2.38-3.522,2.024"/>
			<path style="fill:#263238;" d="M423.126,187.347c0.185-3.558-1.463-12.225-12.99-16.356c-11.528-4.131-16.514,2.641-16.514,2.641
				c2.473-1.365,5.257-2.069,8.082-2.043c-3.293,0.456-6.185,2.421-7.822,5.315c0.827-0.888,4.027-0.362,4.027-0.362
				c1.308-1.183,2.797-2.149,4.411-2.861c-1.682,0.717-2.743,3.821-2.743,3.821l3.32,1.593c0.787-1.882,2.197-3.438,3.993-4.406
				c-1.193,1.613-1.858,3.555-1.907,5.561c0.469-2.218,1.845-4.138,3.794-5.295c-1.282,1.727-2.226,3.682-2.78,5.761
				c1.55,1.406,2.908,3.008,4.04,4.768c0.433-2.378,1.648-4.542,3.453-6.15c-3.378,5.333-0.725,12.01-0.725,12.01
				S422.94,190.905,423.126,187.347z"/>
			<g>
				<path style="fill:#263238;" d="M398.806,194.911c0.374,1.013,0.676,2.881,0.676,2.881c0.174,0.003,0.348,0.006,0.522,0
					c2.363-0.017,3.454-0.806,3.946-1.675c0.268-0.477,0.351-0.983,0.364-1.396c0.02-0.477-0.074-0.822-0.074-0.822
					c-1.247,0.757-3.449,0.943-4.629,0.993C399.117,194.919,398.806,194.911,398.806,194.911z"/>
				<path style="fill:#FFFFFF;" d="M399.611,194.893l0.221,0.844c2.226-0.021,3.79-0.335,4.482-1.015
					c0.02-0.477-0.074-0.822-0.074-0.822C402.993,194.657,400.791,194.843,399.611,194.893z"/>
				<path style="fill:#C15854;" d="M400.004,197.793c2.363-0.017,3.454-0.806,3.946-1.675c-0.805,0.037-1.772,0.171-2.62,0.539
					C400.68,196.936,400.273,197.362,400.004,197.793z"/>
			</g>
		</g>
		<g>
			<path style="fill:#E9B376;" d="M368.949,209.802c0,0-7.587-24.229-6.951-28.737c0.635-4.509,11.913-26.784,11.913-26.784
				l6.777,3.528l-8.393,24.022l10.63,23.368L368.949,209.802z"/>
			<path style="fill:#263238;" d="M370.464,221.942c-0.484-8.54-5.064-22.058-5.064-22.058l13.173-6.508
				c0,0,4.109,11.744,9.788,16.538C388.361,209.913,370.706,227.119,370.464,221.942z"/>
			<path style="opacity:0.2;enable-background:new    ;" d="M376.7,212.821c-2.534,1.01-4.866,2.468-6.882,4.306
				c0.287,1.586,0.481,3.187,0.579,4.795c0.125,2.087,3.028,0.565,6.466-2.007C377.179,217.556,377.124,215.162,376.7,212.821z"/>
			<path style="fill:#E9B376;" d="M369.434,163.623l4.476-9.342c0,0-0.488-2.155-0.468-3.752c0.019-1.597,0.147-3.621,1.95-5.569
				c1.803-1.948,2.111-0.007,2.111-0.007c2.073-1.704,3.407,0.182,3.407,0.182c1.773-1.534,3.364,0.339,3.364,0.339
				s2.104,1.846,2.528,3.06c0.424,1.214-1.572,5.385-1.572,5.385l-4.171,3.144l-3.504,9.71
				C377.386,166.701,369.434,163.623,369.434,163.623z"/>
			<g style="opacity:0.3;">
				<g>
					<path d="M378.783,152.528c1.109-1.106,2.639-1.658,4.198-1.53c0.099,0.008,0.19-0.076,0.217-0.165
						c0.245-0.824,0.49-1.647,0.735-2.471c0.028-0.095-0.019-0.204-0.103-0.254c-0.796-0.47-1.926-1.222-1.451-2.297
						c0.001-0.003,0.029-0.016,0.023-0.017c0.085,0.008,0.159,0.016,0.274,0.061c0.442,0.175,0.847,0.492,1.227,0.77
						c0.886,0.648,1.731,1.353,2.572,2.058c0.22,0.185,0.54-0.132,0.318-0.318c-0.793-0.664-1.59-1.324-2.417-1.946
						c-0.436-0.328-0.885-0.671-1.379-0.909c-0.459-0.221-0.924-0.245-1.112,0.301c-0.427,1.245,0.799,2.144,1.716,2.685
						c-0.035-0.085-0.069-0.169-0.103-0.254c-0.245,0.824-0.49,1.647-0.735,2.471c0.072-0.055,0.145-0.11,0.217-0.165
						c-1.672-0.137-3.33,0.479-4.516,1.662C378.26,152.414,378.578,152.732,378.783,152.528L378.783,152.528z"/>
				</g>
			</g>
			<g style="opacity:0.3;">
				<g>
					<path d="M374.088,147.038c-0.225,0.408-0.228,0.9-0.016,1.314c0.217,0.424,0.662,0.673,1.13,0.693
						c0.482,0.02,0.903-0.222,1.181-0.605c0.293-0.404,0.422-0.909,0.607-1.366c0.253-0.624,0.568-1.224,0.927-1.794
						c0.155-0.246-0.235-0.472-0.389-0.227c-0.341,0.542-0.639,1.11-0.889,1.7c-0.202,0.477-0.327,1.042-0.646,1.46
						c-0.284,0.372-0.791,0.502-1.207,0.263c-0.415-0.238-0.537-0.801-0.311-1.21C374.617,147.011,374.228,146.784,374.088,147.038
						L374.088,147.038z"/>
				</g>
			</g>
			<g style="opacity:0.3;">
				<g>
					<path d="M376.604,148.012c0.136,0.618,0.496,1.228,1.074,1.526c0.513,0.265,1.179,0.264,1.66-0.076
						c0.575-0.407,0.663-1.181,0.899-1.795c0.283-0.734,0.679-1.43,1.16-2.052c0.175-0.226-0.141-0.547-0.318-0.318
						c-0.4,0.517-0.749,1.068-1.026,1.662c-0.134,0.287-0.254,0.581-0.356,0.88c-0.104,0.305-0.169,0.635-0.327,0.918
						c-0.267,0.481-0.85,0.633-1.352,0.443c-0.546-0.207-0.859-0.765-0.979-1.307C376.976,147.61,376.542,147.73,376.604,148.012
						L376.604,148.012z"/>
				</g>
			</g>
			<g style="opacity:0.3;">
				<g>
					<path d="M380.102,148.613c0.24,0.639,0.821,1.095,1.504,1.157c0.677,0.062,1.361-0.339,1.672-0.935
						c0.134-0.256-0.254-0.484-0.389-0.227c-0.238,0.455-0.727,0.747-1.244,0.715c-0.484-0.03-0.941-0.379-1.11-0.83
						c-0.043-0.114-0.152-0.191-0.277-0.157C380.15,148.366,380.059,148.499,380.102,148.613L380.102,148.613z"/>
				</g>
			</g>
		</g>
		<path style="fill:#E9B376;" d="M409.069,216.92c-5.625,4.545-21.335,5.267-21.335,5.267c-1.119-6.412,0.469-9.951,2.556-11.877
			l1.063,0.248c5.356,1.471,10.598,3.328,15.686,5.557C407.675,216.38,408.363,216.676,409.069,216.92z"/>
		<g>
			<polygon style="fill:#263238;" points="358.099,260.438 404.44,273.338 407.369,266.6 383.645,253.546 361.221,254.001 			"/>
			<polygon style="opacity:0.2;enable-background:new    ;" points="358.099,260.438 404.44,273.338 407.369,266.6 383.645,253.546 
				361.221,254.001 			"/>
			<path style="fill:#E9B376;" d="M391.355,210.545c5.354,1.477,10.596,3.334,15.685,5.557c4.786,1.999,9.419,4.347,13.86,7.026
				c-16.83,26.519-19.757,35.241-24.1,49.512c-6.659-2.341-21.341-2.632-35.062-7.432c4.169-38.7,18.363-55.183,18.363-55.183
				C383.843,209.315,387.697,209.493,391.355,210.545z"/>
			<path style="fill:#263238;" d="M403.172,269.064c-3.007-6.259-16.779-9.35-27.427-11.283
				c-10.648-1.933-17.646,2.658-17.646,2.658l1.742-6.173c1.272-4.545,3.262-11.528,7.389-25.102
				c1.656-5.448,4.479-11.797,7.556-15.28c1.104-2.075,2.481-3.993,4.095-5.702c2.849-2.75,5.165-2.813,10.039,1.907
				c0,0-0.014,4.473,4.455,6.861c6.685,3.566,15.339-0.832,15.339-0.832s9.302,4.41,11.813,7.018
				c1.054,1.1-0.958,5.067-4.274,11.266c-0.081,0.13-0.202,0.256-0.215,0.393c-1.815,3.312-6.603,11.139-8.925,15.642
				c-4.143,7.851,9.069,16.801-2.674,22.902L403.172,269.064z"/>
		</g>
		<path style="opacity:0.2;enable-background:new    ;" d="M410.893,234.269c0.282-0.978,0.498-1.535,0.498-1.535
			c1.871,0.033,3.688,0.626,5.22,1.7l0,0l0,0c-0.081,0.13-0.202,0.257-0.215,0.393c-1.815,3.312-4.431,6.51-6.754,11.013
			C408.982,241.713,409.68,238.269,410.893,234.269z"/>
		<g>
			<path style="fill:#E9B376;" d="M436.383,238.469c-0.705,1.688-0.978,3.929-1.398,5.983c-5.213-5.222-9.46-12.125-12.999-18.448
				l-12.292,6.039l0.011,0.029c5.341,10.454,12.422,20.215,22.692,26.364c3.707,2.228,8.518,1.029,10.745-2.677
				c0.069-0.115,0.136-0.232,0.198-0.35c2.532-4.236,2.272-5.72,3.079-9.921L436.383,238.469z"/>
			<path style="fill:#263238;" d="M409.457,233.286c-0.849,4.926,6.916,13.526,6.916,13.526l12.626-12.112
				c0,0-5.4-10.405-8.882-12.015C416.164,220.812,410.306,228.36,409.457,233.286z"/>
			<polygon style="fill:#407BFF;" points="456.204,210.023 456.446,230.995 426.934,239.543 427.835,216.6 453.502,209.199 			"/>
			<polygon style="opacity:0.2;enable-background:new    ;" points="456.204,210.023 456.446,230.995 426.934,239.543 
				427.835,216.6 453.502,209.199 			"/>
			<polygon style="fill:#407BFF;" points="437.168,217.962 434.509,239.837 428.777,237.581 428.881,217.644 			"/>
			<polygon style="opacity:0.7;fill:#FFFFFF;enable-background:new    ;" points="437.168,217.962 434.509,239.837 428.777,237.581 
				428.881,217.644 			"/>
			<polygon style="fill:#407BFF;" points="453.502,209.199 456.204,210.023 458.344,232.337 431.546,240.377 431.574,218.852 
				427.835,216.6 			"/>
			<g>
				<path style="fill:#E9B376;" d="M438.786,233.383l0.5-10.347c0,0-1.286-1.797-1.888-3.276s-1.27-3.395-0.364-5.89
					c0.906-2.495,1.942-0.826,1.942-0.826c1.249-2.375,3.211-1.155,3.211-1.155c1.039-2.102,3.232-0.993,3.232-0.993
					s2.656,0.885,3.518,1.839c0.862,0.954,0.641,5.573,0.641,5.573l-2.624,4.517l0.143,10.321
					C446.913,233.144,438.786,233.383,438.786,233.383z"/>
			</g>
			<path style="fill:#E9B376;" d="M434.985,244.452l4.3-21.417l7.691,0.215c0,0,1.008,24.153-2.512,30.061
				c-3.52,5.908-6.306,1.688-6.306,1.688L434.985,244.452z"/>
		</g>
		<g>
			<polygon style="fill:#E9B376;" points="383.341,445.731 374.567,447.564 365.57,425.823 378.902,422.887 			"/>
			<g>
				<path style="fill:#263238;" d="M372.628,444.564l3.03-0.981c0.686-0.222,1.432-0.081,2.017,0.342
					c2.52,1.821,3.541,0.494,4.716-2.365c1.163-0.532,1.937,0.749,2.156,1.09l4.933,7.507c0.419,0.624,0.253,1.471-0.371,1.89
					c-0.111,0.075-0.232,0.133-0.36,0.172c-3.68,1.191-5.421,1.755-10.001,3.238l-14.007,4.534
					c-3.818,1.236-5.855-2.356-4.398-3.221c6.567-3.853,10.901-7.555,12.421-10.32C373.052,445.957,372.548,445.823,372.628,444.564
					z"/>
				<path style="fill:#407BFF;" d="M369.019,448.835c0.949-0.332,1.861-0.763,2.72-1.285c0.077-0.06,0.091-0.171,0.032-0.248
					c-0.032-0.042-0.082-0.067-0.134-0.069c-0.493-0.07-4.855-0.614-5.586,0.366c-0.141,0.173-0.169,0.412-0.074,0.614
					c0.132,0.391,0.441,0.697,0.835,0.823C367.549,449.206,368.323,449.135,369.019,448.835z M371.072,447.514
					c-1.051,0.57-3.038,1.519-4.107,1.155c-0.28-0.103-0.502-0.322-0.61-0.6c-0.047-0.083-0.036-0.187,0.025-0.26
					C366.787,447.273,369.275,447.331,371.072,447.514z"/>
				<path style="fill:#407BFF;" d="M371.703,447.572c0.043-0.001,0.084-0.014,0.119-0.038c0.036-0.061,0.033-0.137-0.008-0.194
					c-0.051-0.158-2.149-3.6-4.149-2.69c-0.492,0.236-0.56,0.531-0.513,0.745c0.192,1.031,3.181,2.129,4.472,2.235L371.703,447.572z
					 M367.968,444.88c1.316-0.426,2.782,1.504,3.321,2.291c-1.448-0.253-3.682-1.245-3.768-1.884
					c-0.016-0.049-0.061-0.188,0.312-0.352L367.968,444.88z"/>
				<path style="fill:none;stroke:#407BFF;stroke-width:0.5;stroke-linecap:round;stroke-linejoin:round;stroke-miterlimit:10;" d="
					M371.281,447.584c1.09-0.195,2.26,0.115,3.11,0.825"/>
				<path style="fill:none;stroke:#407BFF;stroke-width:0.5;stroke-linecap:round;stroke-linejoin:round;stroke-miterlimit:10;" d="
					M369.857,449.611c1.09-0.195,2.26,0.115,3.11,0.825"/>
				<path style="fill:none;stroke:#407BFF;stroke-width:0.5;stroke-linecap:round;stroke-linejoin:round;stroke-miterlimit:10;" d="
					M367.9,451.561c1.09-0.195,2.26,0.115,3.11,0.825"/>
			</g>
			<polygon style="opacity:0.3;" points="371.686,440.603 372.452,442.453 382.158,439.634 381.723,437.396 			"/>
		</g>
		<g>
			<polygon style="fill:#E9B376;" points="452.697,390.636 447.051,397.598 426.346,386.422 434.83,375.726 			"/>
			<g>
				<path style="fill:#263238;" d="M443.827,396.307l1.73-2.674c0.392-0.605,1.06-0.967,1.779-1.008
					c3.104-0.18,3.058-1.854,2.163-4.812c0.566-1.147,1.975-0.642,2.36-0.516l8.565,2.706c0.72,0.219,1.125,0.98,0.906,1.7
					c-0.039,0.128-0.097,0.249-0.171,0.361c-2.101,3.247-3.095,4.784-5.71,8.826l-7.998,12.361c-2.18,3.37-6.028,1.871-5.444,0.28
					c2.659-7.134,3.682-12.742,3.115-15.846C445.036,397.12,444.56,397.333,443.827,396.307z"/>
				<path style="fill:#407BFF;" d="M443.725,401.898c0.526-0.857,0.961-1.767,1.298-2.714c0.022-0.095-0.037-0.19-0.132-0.212
					c-0.051-0.012-0.105,0-0.147,0.031c-0.426,0.257-4.152,2.589-4.101,3.811c0.001,0.223,0.129,0.427,0.33,0.523
					c0.349,0.22,0.782,0.261,1.167,0.111C442.82,403.114,443.376,402.57,443.725,401.898z M444.484,399.577
					c-0.455,1.105-1.397,3.096-2.455,3.489c-0.282,0.097-0.593,0.067-0.852-0.081c-0.089-0.035-0.146-0.122-0.144-0.217
					C441.009,402.097,442.975,400.57,444.484,399.577z"/>
				<path style="fill:#407BFF;" d="M445.01,399.224c0.032-0.028,0.056-0.064,0.068-0.105c-0.01-0.07-0.061-0.127-0.129-0.145
					c-0.14-0.09-3.939-1.434-4.916,0.535c-0.233,0.493-0.099,0.766,0.073,0.902c0.8,0.678,3.811-0.358,4.879-1.091L445.01,399.224z
					 M440.413,399.495c0.751-1.161,3.107-0.591,4.022-0.32c-1.282,0.719-3.641,1.359-4.112,0.919
					c-0.044-0.028-0.166-0.107,0.02-0.47L440.413,399.495z"/>
				<path style="fill:none;stroke:#407BFF;stroke-width:0.5;stroke-linecap:round;stroke-linejoin:round;stroke-miterlimit:10;" d="
					M444.69,399.499c0.722-0.84,1.825-1.338,2.932-1.325"/>
				<path style="fill:none;stroke:#407BFF;stroke-width:0.5;stroke-linecap:round;stroke-linejoin:round;stroke-miterlimit:10;" d="
					M444.865,401.97c0.722-0.84,1.825-1.338,2.932-1.325"/>
				<path style="fill:none;stroke:#407BFF;stroke-width:0.5;stroke-linecap:round;stroke-linejoin:round;stroke-miterlimit:10;" d="
					M444.579,404.719c0.722-0.84,1.825-1.338,2.932-1.325"/>
			</g>
			<polygon style="opacity:0.3;" points="437.933,392.86 441.05,394.359 446.701,385.626 444.678,383.938 			"/>
		</g>
		<g>
			<path style="fill:#407BFF;" d="M388.559,266.273c0,0-11.185,66.736-14.598,95.809l10.987,74.663l-17.146,4.862
				c0,0-21.099-58.325-19.623-85.605c-2.04-24.951,9.195-90.194,13.587-91.824L388.559,266.273z"/>
			<path style="opacity:0.2;enable-background:new    ;" d="M388.559,266.273c0,0-11.185,66.736-14.598,95.809l10.987,74.663
				l-17.146,4.862c0,0-21.099-58.325-19.623-85.605c-2.04-24.951,9.195-90.194,13.587-91.824L388.559,266.273z"/>
			<path style="opacity:0.2;enable-background:new    ;" d="M383.491,289.06c-3.416,16.321-5.771,49.059-8.815,67.324
				c-2.226-12.493-5.908-49.996,4.448-67.346C383.869,281.032,382.814,279.624,383.491,289.06z"/>
			<path style="fill:#407BFF;" d="M398.547,267.081c0,0,9.792,11.881,10.583,32.515c0.66,17.211-6.453,39.854-4.86,53.137
				c16.514,3.992,40.487,31.135,40.487,31.135l-6.139,10.022c0,0-51.879-20.77-57.233-33.63
				c-4.835-26.216-9.522-95.262-9.522-95.262L398.547,267.081z"/>
			<path style="opacity:0.2;enable-background:new    ;" d="M398.547,267.081c0,0,9.792,11.881,10.583,32.515
				c0.66,17.211-6.453,39.854-4.86,53.137c16.514,3.992,40.487,31.135,40.487,31.135l-6.139,10.022c0,0-51.879-20.77-57.233-33.63
				c-4.835-26.216-9.522-95.262-9.522-95.262L398.547,267.081z"/>
		</g>
	</g>
</g>
<g id="Character_1">
	<g>
		<g>
			<path style="fill:#895555;" d="M111.533,193.926l25.117-25.384l2.706-29.873l7.661,2.85c0,0,2.764,29.125,0.718,32.414
				c-2.046,3.289-24.274,28.385-24.274,28.385L111.533,193.926z"/>
			<path style="fill:#895555;" d="M147.703,149.086l-0.677-10.337c0,0,1.255-1.819,1.831-3.308c0.576-1.489,1.211-3.416,0.263-5.895
				s-1.956-0.793-1.956-0.793c-1.29-2.354-3.23-1.099-3.23-1.099c-1.075-2.084-3.249-0.938-3.249-0.938s-2.641,0.93-3.486,1.899
				c-0.845,0.968-0.546,5.583-0.546,5.583l2.701,4.471l-0.362,10.317C139.176,148.982,147.703,149.086,147.703,149.086z"/>
			<g style="opacity:0.3;">
				<g>
					<path d="M143.557,135.105c-0.658-1.54-1.986-2.716-3.585-3.207c0.055,0.072,0.11,0.145,0.165,0.217
						c0.079-0.855,0.159-1.711,0.238-2.566c-0.055,0.072-0.11,0.145-0.165,0.217c0.958-0.146,2.074-0.4,2.47-1.409
						c0.108-0.274,0.183-0.7-0.044-0.947c-0.159-0.173-0.417-0.197-0.637-0.194c-0.474,0.008-0.954,0.132-1.41,0.246
						c-1.11,0.278-2.202,0.633-3.29,0.989c-0.274,0.09-0.157,0.524,0.12,0.434c1.052-0.344,2.107-0.686,3.18-0.961
						c0.471-0.121,0.971-0.263,1.463-0.258c0.123,0.001,0.183,0.013,0.242,0.046c0.006,0.003,0.022-0.008,0.023,0.058
						c-0.001-0.05,0.004,0.132,0,0.167c-0.03,0.301-0.209,0.568-0.428,0.767c-0.486,0.441-1.186,0.532-1.808,0.627
						c-0.103,0.016-0.157,0.126-0.165,0.217c-0.079,0.855-0.159,1.711-0.238,2.566c-0.009,0.099,0.077,0.19,0.165,0.217
						c1.495,0.459,2.702,1.564,3.316,3C143.282,135.598,143.669,135.369,143.557,135.105L143.557,135.105z"/>
				</g>
			</g>
			<g style="opacity:0.3;">
				<g>
					<path d="M149.11,131.992c0.054,0.453-0.208,0.925-0.673,1.029c-0.487,0.109-0.945-0.205-1.08-0.669
						c-0.152-0.521-0.047-1.115-0.06-1.65c-0.016-0.635-0.085-1.268-0.199-1.893c-0.051-0.285-0.485-0.164-0.434,0.12
						c0.141,0.779,0.201,1.569,0.182,2.361c-0.015,0.617-0.046,1.317,0.42,1.794c0.391,0.4,1.036,0.525,1.542,0.282
						c0.506-0.242,0.818-0.819,0.752-1.373C149.526,131.708,149.076,131.705,149.11,131.992L149.11,131.992z"/>
				</g>
			</g>
			<g style="opacity:0.3;">
				<g>
					<path d="M146.485,131.678c-0.306,0.447-0.796,0.824-1.359,0.826c-0.523,0.001-1.023-0.34-1.106-0.873
						c-0.046-0.297,0.006-0.602,0.026-0.899c0.023-0.335,0.025-0.672,0.008-1.007c-0.034-0.661-0.146-1.317-0.327-1.953
						c-0.079-0.278-0.513-0.16-0.434,0.12c0.22,0.777,0.332,1.575,0.322,2.383c-0.009,0.683-0.225,1.463,0.221,2.057
						c0.349,0.464,0.959,0.684,1.527,0.603c0.636-0.092,1.156-0.511,1.51-1.029C147.038,131.665,146.648,131.44,146.485,131.678
						L146.485,131.678z"/>
				</g>
			</g>
			<g style="opacity:0.3;">
				<g>
					<path d="M143.051,130.887c-0.341,0.373-0.879,0.531-1.365,0.377c-0.468-0.148-0.832-0.604-0.88-1.091
						c-0.012-0.121-0.095-0.225-0.225-0.225c-0.112,0-0.237,0.103-0.225,0.225c0.068,0.684,0.519,1.286,1.174,1.513
						c0.636,0.221,1.389,0.012,1.839-0.481C143.564,130.992,143.247,130.673,143.051,130.887L143.051,130.887z"/>
				</g>
			</g>
		</g>
		<g>
			<polygon style="fill:#407BFF;" points="177.653,435.81 167.852,410.172 184.806,405.269 190.102,436.978 			"/>
			<polygon style="opacity:0.7;fill:#FFFFFF;" points="177.653,435.81 167.852,410.172 184.806,405.269 190.102,436.978 			"/>
			<g>
				<g>
					<g>
						<g>
							<g>
								<g>
									<g>
										<g>
											<g>
												<g>
													<g>
														<path style="fill:#263238;" d="M179.665,449.254l7.095-0.459c0,0,1.387-0.809,2.236-0.768
															c0.846,0.042,3.802,0.376,3.802,0.376l18.84-1.22c-0.199-0.732-0.429-1.379-0.679-1.951
															c-0.305-0.697-0.645-1.282-1.012-1.772c-1.285-1.713-2.919-2.246-4.658-2.236c-2.648,0.015-11.292-4.648-11.292-4.648
															s-3.077-0.794-3.438-3.793c-0.136-1.124-2.001-2.387-2.853-2.445c-1.738-0.122-2.629,0.965-2.774,2.598l-0.165,1.897
															l-4.018-0.324c0,0-4.174-1.65-3.855,0.195c0.182,1.053,1.173,5.732,1.846,9.45c0.158,0.867,0.305,1.687,0.435,2.407
															l0.002,0.001C179.465,448.157,179.665,449.254,179.665,449.254z"/>
													</g>
												</g>
											</g>
										</g>
									</g>
								</g>
								<g style="opacity:0.7;">
									<path style="fill:#FFFFFF;" d="M211.637,447.183l-18.84,1.22c0,0-2.956-0.334-3.802-0.376
										c-0.849-0.041-2.236,0.768-2.236,0.768l-7.095,0.459c0,0-0.2-1.097-0.488-2.694l31.782-1.328
										C211.208,445.804,211.438,446.451,211.637,447.183z"/>
								</g>
								<g>
									<g>
										<g>
											<g>
												<path style="fill:#FFFFFF;" d="M198.257,438.238c-0.093-0.075-0.228-0.075-0.326-0.005
													c-0.448,0.321-0.813,0.758-1.046,1.29c-0.123,0.281,0.317,0.516,0.441,0.232c0.207-0.473,0.526-0.859,0.917-1.141
													c0.131-0.094,0.142-0.274,0.017-0.374C198.26,438.24,198.259,438.239,198.257,438.238z"/>
											</g>
										</g>
									</g>
								</g>
								<g>
									<g>
										<g>
											<g>
												<path style="fill:#FFFFFF;" d="M196.704,437.506c-0.093-0.075-0.228-0.075-0.326-0.005
													c-0.448,0.321-0.813,0.758-1.046,1.29c-0.123,0.281,0.317,0.516,0.441,0.232c0.207-0.473,0.526-0.859,0.917-1.141
													c0.131-0.094,0.141-0.274,0.017-0.374C196.707,437.509,196.705,437.507,196.704,437.506z"/>
											</g>
										</g>
									</g>
								</g>
								<g>
									<g>
										<g>
											<g>
												<path style="fill:#FFFFFF;" d="M195.107,436.833c-0.092-0.074-0.228-0.074-0.326-0.004
													c-0.448,0.321-0.813,0.758-1.046,1.29c-0.123,0.281,0.317,0.516,0.441,0.232c0.207-0.473,0.526-0.859,0.917-1.141
													c0.131-0.094,0.141-0.274,0.017-0.374C195.11,436.835,195.109,436.834,195.107,436.833z"/>
											</g>
										</g>
									</g>
								</g>
							</g>
						</g>
					</g>
				</g>
			</g>
			<polygon style="fill:#407BFF;" points="169.485,414.689 185.517,409.583 186.078,412.887 170.838,417.985 			"/>
			<polygon style="fill:#407BFF;" points="171.167,419.101 186.257,413.956 186.456,415.151 171.732,420.542 			"/>
		</g>
		<g>
			<polygon style="fill:#407BFF;" points="83.89,441.536 83.955,414.089 101.539,415.605 95.087,447.1 			"/>
			<polygon style="opacity:0.7;fill:#FFFFFF;" points="83.89,441.536 83.955,414.089 101.539,415.605 95.087,447.1 			"/>
			<g>
				<g>
					<g>
						<g>
							<g>
								<g>
									<g>
										<g>
											<g>
												<g>
													<g>
														<path style="fill:#263238;" d="M81.63,454.531l9.208,1.161c0,0,1.491-0.596,2.324-0.431
															c0.831,0.166,3.706,0.93,3.706,0.93l18.474,1.629c-0.09-0.753-0.222-1.427-0.386-2.03
															c-0.2-0.734-0.45-1.363-0.741-1.901c-1.02-1.883-2.216-2.722-3.938-2.967c-2.622-0.373-10.488-6.255-10.488-6.255
															s-2.927-1.236-2.844-4.256c0.03-1.132-1.629-2.654-2.464-2.837c-1.702-0.375-2.742,0.569-3.125,2.163l-0.442,1.852
															l-3.926-0.91c0,0-3.887-2.245-3.842-0.373c0.026,1.069-1.803,5.267-1.683,9.045c0.029,0.881,0.054,1.714,0.077,2.444
															l0.002,0.001C81.593,453.417,81.63,454.531,81.63,454.531z"/>
													</g>
												</g>
											</g>
										</g>
									</g>
								</g>
								<g>
									<path style="opacity:0.7;fill:#FFFFFF;" d="M115.341,457.819l-18.473-1.629c0,0-2.875-0.764-3.706-0.929
										c-0.834-0.165-2.324,0.431-2.324,0.431l-9.208-1.161c0,0-0.037-1.115-0.088-2.737l33.414,3.995
										C115.12,456.392,115.252,457.066,115.341,457.819z"/>
								</g>
								<g>
									<g>
										<g>
											<g>
												<path style="fill:#FFFFFF;" d="M103.76,446.936c-0.081-0.087-0.215-0.107-0.321-0.052
													c-0.49,0.252-0.915,0.63-1.224,1.123c-0.163,0.26,0.238,0.556,0.402,0.294c0.274-0.438,0.646-0.773,1.075-0.994
													c0.143-0.074,0.18-0.25,0.072-0.367C103.762,446.939,103.761,446.937,103.76,446.936z"/>
											</g>
										</g>
									</g>
								</g>
								<g>
									<g>
										<g>
											<g>
												<path style="fill:#FFFFFF;" d="M102.331,445.985c-0.081-0.087-0.215-0.107-0.321-0.052
													c-0.49,0.252-0.916,0.63-1.224,1.123c-0.163,0.26,0.238,0.557,0.402,0.294c0.274-0.438,0.646-0.773,1.075-0.994
													c0.143-0.074,0.18-0.251,0.072-0.368C102.333,445.987,102.332,445.986,102.331,445.985z"/>
											</g>
										</g>
									</g>
								</g>
								<g>
									<g>
										<g>
											<g>
												<path style="fill:#FFFFFF;" d="M100.85,445.084c-0.081-0.087-0.215-0.107-0.321-0.052
													c-0.49,0.252-0.915,0.63-1.224,1.123c-0.163,0.26,0.238,0.557,0.402,0.294c0.274-0.438,0.646-0.773,1.075-0.993
													c0.143-0.074,0.18-0.251,0.072-0.368C100.853,445.087,100.851,445.085,100.85,445.084z"/>
											</g>
										</g>
									</g>
								</g>
							</g>
						</g>
					</g>
				</g>
			</g>
			<polygon style="fill:#407BFF;" points="83.857,418.891 100.653,419.887 99.989,423.172 83.935,422.453 			"/>
			<polygon style="fill:#407BFF;" points="83.841,423.612 99.772,424.233 99.529,425.421 83.85,425.16 			"/>
		</g>
		<g>
			<path style="fill:#263238;" d="M80.238,435.866l18.948-1.093c0,0,13.139-59.021,13.986-73.932
				c0.847-14.912-0.668-52.09-0.668-52.09l0,0l0.004,0.073c0.727,0.758,6.326,9.557,13.598,17.709
				c9.507,10.666,19.665,22.204,22.043,25.316c6.976,9.175,23.688,78.87,23.688,78.87l17.856-2.934c0,0-11.084-72.988-14.25-82.062
				c-7.386-21.169-46.447-64.095-48.086-66.461c-2.1-3.019-7.383-12.679-7.383-12.679L73.6,275.038c0,0-0.357,7.064,0.051,13.199
				c1.546,23.017,12.114,61.38,13.386,69.708C82.337,377.071,80.238,435.866,80.238,435.866z"/>
			<path style="opacity:0.2;enable-background:new    ;" d="M115.536,304.522l-3.028,4.302c0.601,1.055,10.594,15.003,13.186,17.103
				C126.366,316.402,124.067,308.809,115.536,304.522z"/>
		</g>
		<g>
			<path style="fill:#407BFF;" d="M97.119,212.388c2.429,3.54,6.242,7.4,13.928,3.607c5.171-2.552,12.088-9.993,21.547-17.964
				l-16.324-12.001c-5.732,4.797-7.571,7.161-15.253,13.862C90.944,210.309,97.119,212.388,97.119,212.388z"/>
			<path style="opacity:0.7;fill:#263238;" d="M97.119,212.388c2.429,3.54,6.242,7.4,13.928,3.607
				c5.171-2.552,12.088-9.993,21.547-17.964l-16.324-12.001c-5.732,4.797-7.571,7.161-15.253,13.862
				C90.944,210.309,97.119,212.388,97.119,212.388z"/>
		</g>
		<g>
			<path style="fill:#407BFF;" d="M117.803,223.257c-1.422-4.816-3.439-10.786-5.107-15.571c-1.792-5.14-6.094-8.803-11.537-8.707
				c-8.35,0.148-17.136,0.165-31.216,3.933l-3.072,24.493l7.602,39.07c0,0-0.046,9.485-2.018,18.093
				c20.367,6.225,45.434,4.834,57.7-3.474C130.155,281.094,120.663,232.941,117.803,223.257z"/>
			<path style="opacity:0.7;fill:#263238;" d="M78.456,200.988c0,0,6.381,7.042,15.777,4.914c9.396-2.128,7.231-6.923,7.231-6.923
				s-0.99,0.021-2.548,0.032C94.632,199.041,85.688,199.283,78.456,200.988z"/>
			<g>
				<path style="fill:#263238;" d="M91.595,248.09l-10.607-10.929l-5.659,23.796c0,0,4.337,8.357,4.458,7.926
					C79.906,268.452,91.595,248.09,91.595,248.09z"/>
				<polygon style="fill:#407BFF;" points="90.303,248.395 81.107,239.239 76.123,238.375 75.871,258.599 81.79,262.233 				"/>
				<polygon style="opacity:0.7;fill:#FFFFFF;enable-background:new    ;" points="90.303,248.395 81.107,239.239 76.123,238.375 
					75.871,258.599 81.79,262.233 				"/>
				<polygon style="fill:#407BFF;" points="75.839,236.173 85.375,247.031 91.591,248.03 84.03,279.622 75.215,281.076 
					68.865,268.495 				"/>
				<polygon style="fill:#263238;" points="75.839,236.173 85.375,247.031 91.591,248.03 84.03,279.622 75.215,281.076 
					68.865,268.495 				"/>
				<path style="fill:#407BFF;" d="M85.144,248.911l-11.49-10.054l-3.77,24.172c0,0,4.994,7.98,5.078,7.539
					C75.045,270.127,85.144,248.911,85.144,248.911z"/>
				<path style="opacity:0.4;enable-background:new    ;" d="M85.144,248.911l-11.49-10.054l-3.77,24.172
					c0,0,4.994,7.98,5.078,7.539C75.045,270.127,85.144,248.911,85.144,248.911z"/>
				<polygon style="fill:#407BFF;" points="83.898,249.383 74.006,240.97 68.972,240.509 70.306,260.689 76.501,263.848 				"/>
				<polygon style="opacity:0.7;fill:#FFFFFF;enable-background:new    ;" points="83.898,249.383 74.006,240.97 68.972,240.509 
					70.306,260.689 76.501,263.848 				"/>
				<polygon style="fill:#407BFF;" points="68.519,238.329 78.884,248.411 85.144,248.911 80.109,281.012 71.431,283.137 
					64.106,271.109 				"/>
				<polygon style="opacity:0.2;enable-background:new    ;" points="68.519,238.329 78.884,248.411 85.144,248.911 80.109,281.012 
					71.431,283.137 64.106,271.109 				"/>
			</g>
			<g>
				<path style="fill:#895555;" d="M57.907,213.37c-0.804,1.458-18.488,31.329-19.156,37.847c-0.783,7.643,0.764,9.926,4.055,11.943
					c3.291,2.017,35.417,2.911,35.417,2.911l-1.155-9.615l-22.241-6.213L74.194,220L57.907,213.37z"/>
				<path style="fill:#407BFF;" d="M70.246,202.925c0,0-8.054-0.693-12.135,7.55c-3.757,7.59-13.05,24.211-13.05,24.211
					l19.369,8.208l10.753-19.134L70.246,202.925z"/>
				<path style="opacity:0.7;fill:#263238;" d="M70.246,202.925c0,0-8.054-0.693-12.135,7.55c-3.757,7.59-13.05,24.211-13.05,24.211
					l19.369,8.208l10.753-19.134L70.246,202.925z"/>
			</g>
			<g>
				<path style="fill:#895555;" d="M65.375,265.142l12.849,0.93c0,0,2.026,1.856,3.763,2.82c1.736,0.964,4.001,2.075,7.216,1.329
					c3.215-0.745,1.31-2.274,1.31-2.274c3.119-1.187,1.905-3.791,1.905-3.791c2.751-0.968,1.709-3.841,1.709-3.841
					s-0.696-3.411-1.744-4.617c-1.049-1.206-6.784-1.624-6.784-1.624l-5.968,2.565l-12.72-1.719
					C66.884,255.144,65.375,265.142,65.375,265.142z"/>
			</g>
		</g>
		<g>
			<path style="fill:#895555;" d="M81.063,201.641c4.781-4.579,3.824-17.003,2.55-23.42l15.049,11.597
				c-0.304,0.751-0.555,1.523-0.753,2.308c-0.406,1.407-0.443,2.894-0.108,4.319c0.326,1.173,1.843,4.407,1.843,4.407
				s0.932,3.66-8.828,4.047C86.552,205.532,81.063,201.641,81.063,201.641z"/>
			<path style="opacity:0.2;enable-background:new    ;" d="M86.56,184.654c-0.423,7.598,7.354,10.82,11.248,11.805
				c-0.336-1.425-0.299-2.913,0.108-4.319L86.56,184.654z"/>
			<g>
				<g>
					<path style="fill:#895555;" d="M80.831,172.723c2.284,8.817,3.389,13.836,8.912,17.503c8.308,5.516,18.633-0.55,19.109-9.896
						c0.428-8.412-3.378-21.418-13.057-23.196C86.26,155.383,78.547,163.906,80.831,172.723z"/>
					<path style="fill:#263238;" d="M76.979,160.723c0.335-5.506,13.88-8.105,18.184-6.131c0.643,0.295-6.631,5.718-6.177,5.454
						l-3.536,1.979c-0.607-0.016-1.623,0.859-1.877,2.727c0,0,3.247,14.536-0.202,19.567c-3.74-0.981-5.056-6.736-6.802-9.984
						C73.969,169.498,70.579,162.333,76.979,160.723z"/>
					<path style="fill:#895555;" d="M78.636,180.842c1.177,2.16,3.276,3.573,5.268,4.11c2.996,0.809,3.458-2.294,2.656-5.057
						c-0.721-2.486-2.076-5.426-5.098-5.017C78.484,175.281,77.29,178.373,78.636,180.842z"/>
					<path style="fill:#263238;" d="M93.308,172.454c0.176,0.913,0.816,1.555,1.431,1.434c0.614-0.121,0.97-0.96,0.794-1.873
						c-0.176-0.913-0.816-1.555-1.431-1.434C93.487,170.702,93.132,171.541,93.308,172.454z"/>
					<path style="fill:#263238;" d="M102.59,171.382c0.176,0.913,0.816,1.555,1.431,1.434c0.614-0.121,0.97-0.96,0.794-1.873
						c-0.176-0.913-0.816-1.555-1.431-1.434C102.769,169.63,102.414,170.469,102.59,171.382z"/>
					<path style="fill:#6D3939;" d="M100.633,171.339c0,0,3.851,3.979,5.16,5.648c-1.087,1.393-3.443,1.287-3.443,1.287
						L100.633,171.339z"/>
					<path style="fill:#263238;" d="M91.349,168.961c0.153,0.03,0.318-0.019,0.43-0.143c1.327-1.469,2.963-1.275,2.979-1.273
						c0.245,0.032,0.473-0.135,0.51-0.373c0.036-0.238-0.134-0.456-0.377-0.488c-0.086-0.012-2.136-0.255-3.782,1.568
						c-0.165,0.182-0.148,0.456,0.037,0.613C91.206,168.915,91.276,168.947,91.349,168.961z"/>
				</g>
				
					<path style="opacity:0.2;fill:none;stroke:#000000;stroke-width:0.5;stroke-linecap:round;stroke-linejoin:round;stroke-miterlimit:10;" d="
					M80.259,177.981c0.268-0.602,0.985-0.94,1.657-0.907c0.672,0.033,1.292,0.379,1.783,0.823c0.59,0.533,1.033,1.22,1.27,1.969"/>
			</g>
			<path style="fill:#263238;" d="M107.056,166.667c0.079-0.033,0.148-0.087,0.199-0.162c0.137-0.201,0.084-0.473-0.12-0.605
				c-2.048-1.33-3.94-0.533-4.029-0.508c-0.227,0.097-0.333,0.354-0.237,0.575c0.096,0.22,0.355,0.321,0.581,0.227
				c0.077-0.036,1.543-0.632,3.187,0.435C106.765,166.713,106.923,166.722,107.056,166.667z"/>
			<g>
				<path style="fill:#263238;" d="M102.185,181.347c-0.711,1.035-1.346,2.12-1.901,3.247c-0.21-0.064-0.427-0.123-0.634-0.197
					c-2.866-0.907-3.901-2.27-4.163-3.514c-0.118-0.611-0.091-1.24,0.079-1.839c0.088-0.339,0.222-0.665,0.4-0.967
					c1.233,1.39,3.832,2.44,5.249,2.941C101.835,181.206,102.185,181.347,102.185,181.347z"/>
				<path style="fill:#FFFFFF;" d="M101.248,181l-0.588,0.943c-2.69-0.858-4.471-1.816-5.061-2.917
					c0.088-0.339,0.222-0.665,0.4-0.967C97.239,179.462,99.831,180.498,101.248,181z"/>
				<path style="fill:#C15854;" d="M99.683,184.379c-2.866-0.907-3.901-2.27-4.163-3.514c1.082,0.364,2.092,0.917,2.982,1.633
					C99.082,182.987,99.495,183.644,99.683,184.379z"/>
			</g>
			<path style="fill:#263238;" d="M81.345,159.199c0,0,4.154-13.603,16.61-13.282c-1.123,0.467-2.147,1.144-3.016,1.995
				c0,0,10.296-2.842,14.912,3.908l-2.223-0.797c0,0,3.781,5.588,1.398,10.18l-0.95-1.909c0,0-3.306,6.097-9.985,5.77l2.003-1.539
				c0,0-11.074,1.692-14.266-0.6C84.199,161.855,82.695,160.605,81.345,159.199z"/>
		</g>
	</g>
</g>
</svg>
