<?xml version="1.0" encoding="utf-8"?>
<!-- Generator: Adobe Illustrator 27.5.0, SVG Export Plug-In . SVG Version: 6.00 Build 0)  -->
<svg version="1.1" id="Illustration" xmlns="http://www.w3.org/2000/svg" xmlns:xlink="http://www.w3.org/1999/xlink" x="0px"
	 y="0px" viewBox="0 0 1200 800" style="enable-background:new 0 0 1200 800;" xml:space="preserve">
<g>
	<linearGradient id="SVGID_1_" gradientUnits="userSpaceOnUse" x1="563.972" y1="87.2266" x2="803.7057" y2="87.2266">
		<stop  offset="0" style="stop-color:#B37CFF"/>
		<stop  offset="1" style="stop-color:#F895E7"/>
	</linearGradient>
	<path style="fill:url(#SVGID_1_);" d="M803.624,117.247c-5.071-24.069-17.688-15.809-38.819-23.215
		c-21.119-7.402-14.942-33.817-28.055-41.965c-17.482-10.864-33.534-0.78-44.41,13.48c-18.069,23.692-30.432,4.425-52.031,14.027
		c-12.374,5.501-7.096,13.207-23.835,16.309c-11.695,2.168-24.355-2.937-35.883,0.183c-8.536,2.311-14.73,6.364-16.619,14.634
		c2.41,1.135,4.907,2.16,7.478,3.087c32.272,11.633,76.297,7.749,108.916,9.464C691.485,123.835,807.218,134.305,803.624,117.247z"
		/>
	
		<linearGradient id="SVGID_00000018937928841940558860000012638117305150438283_" gradientUnits="userSpaceOnUse" x1="910.6584" y1="83.067" x2="1073.9667" y2="83.067">
		<stop  offset="0" style="stop-color:#B37CFF"/>
		<stop  offset="1" style="stop-color:#F895E7"/>
	</linearGradient>
	<path style="fill:url(#SVGID_00000018937928841940558860000012638117305150438283_);" d="M1023.326,67.237
		c-5.543-6.771-13.816-9.558-21.922-7.531c-8.834,2.209-13.827,10.653-22.049,14.029c-14.345,5.891-34.182-5.748-45.077,9.437
		c-13.325,18.574-23.621,4.643-23.621,17.247s92.062,3.317,137.487,3.98c6.563,0.096,35.055-0.382,22.79-14.005
		c-3.809-4.23-9.244-4.939-14.309-5.929c-6.606-1.291-22.312-1.999-27.096-7.138c-2.575-2.766-3.566-6.741-5.892-9.701
		C1023.536,67.495,1023.432,67.365,1023.326,67.237z"/>
	
		<linearGradient id="SVGID_00000107587628840088239700000006638154320926662026_" gradientUnits="userSpaceOnUse" x1="19.0851" y1="404.2349" x2="1109.4419" y2="404.2349">
		<stop  offset="0" style="stop-color:#B37CFF"/>
		<stop  offset="1" style="stop-color:#F895E7"/>
	</linearGradient>
	<path style="opacity:0.5;fill:url(#SVGID_00000107587628840088239700000006638154320926662026_);" d="M212.975,96.178
		c-84.576,69.899,28.482,159.622-30.089,198.789c-58.572,39.168-301.146,115.558-56.865,267.103s250.991,251.96,425.377,156.005
		s161.86-113.198,305.366-48.329s293.499-36.055,242.501-155.835c-50.998-119.78-83.468-118.286-25.235-194.779
		c58.233-76.493-32.834-288.168-233.288-124.584s-325.924,41.456-347.935-19.724C470.797,113.646,346.634-14.286,212.975,96.178z"/>
	<g>
		
			<linearGradient id="SVGID_00000145740507268549773410000010674282974427041461_" gradientUnits="userSpaceOnUse" x1="6214.832" y1="1212.4156" x2="6340.5864" y2="1212.4156" gradientTransform="matrix(-0.9512 -0.3085 -0.3085 0.9512 7387.063 1388.8007)">
			<stop  offset="0" style="stop-color:#CB236D"/>
			<stop  offset="1" style="stop-color:#4C246D"/>
		</linearGradient>
		<path style="fill:url(#SVGID_00000145740507268549773410000010674282974427041461_);" d="M929.275,753.72
			c0,0,41.011-176.2,145.617-301.188c19.218-22.962,56.488-9.581,56.635,20.362C1131.953,559.959,1104.212,702.379,929.275,753.72z"
			/>
		
			<linearGradient id="SVGID_00000180368572456311445240000015098262522008402620_" gradientUnits="userSpaceOnUse" x1="-936.4171" y1="619.3892" x2="-811.5967" y2="619.3892" gradientTransform="matrix(0.9876 0.1568 -0.1568 0.9876 1980.7242 132.2967)">
			<stop  offset="0" style="stop-color:#B37CFF"/>
			<stop  offset="0.7717" style="stop-color:#E88FEC"/>
			<stop  offset="1" style="stop-color:#F895E7"/>
		</linearGradient>
		<path style="opacity:0.5;fill:url(#SVGID_00000180368572456311445240000015098262522008402620_);" d="M1105.193,471.09
			c-3.109,13.24-7.147,26.149-11.489,38.986c-4.416,12.804-9.227,25.478-14.504,37.963c-10.536,24.974-22.627,49.331-36.449,72.706
			c-6.949,11.661-14.182,23.167-21.997,34.281c-3.824,5.613-7.955,11.014-11.962,16.495c-4.183,5.355-8.295,10.762-12.723,15.92
			c-17.301,20.941-36.727,40.179-58.065,56.878c-0.636,0.498-1.556,0.386-2.054-0.251c-0.469-0.599-0.397-1.448,0.144-1.961
			l0.017-0.016c19.558-18.448,37.68-38.227,54.038-59.414c4.178-5.223,8.028-10.703,12.064-16.032
			c3.834-5.483,7.788-10.877,11.439-16.486c1.829-2.801,3.765-5.528,5.555-8.355l5.43-8.439c1.79-2.826,3.506-5.7,5.262-8.547
			c1.77-2.839,3.461-5.727,5.137-8.623c3.438-5.742,6.711-11.582,10.005-17.411c3.194-5.885,6.387-11.771,9.446-17.731
			c6.24-11.857,12.029-23.948,17.695-36.103c5.593-12.188,10.95-24.496,15.981-36.945c5.086-12.419,9.852-25.017,14.21-37.686
			l0.014-0.04c0.263-0.764,1.094-1.17,1.858-0.907C1104.96,469.618,1105.36,470.37,1105.193,471.09z"/>
	</g>
	<g>
		
			<linearGradient id="SVGID_00000174572919853399764640000016276418274630926982_" gradientUnits="userSpaceOnUse" x1="6139.4849" y1="1260.0699" x2="6307.2681" y2="1260.0699" gradientTransform="matrix(-0.9512 -0.3085 -0.3085 0.9512 7387.063 1388.8007)">
			<stop  offset="0" style="stop-color:#FDF53F"/>
			<stop  offset="1" style="stop-color:#D93C65"/>
		</linearGradient>
		<path style="fill:url(#SVGID_00000174572919853399764640000016276418274630926982_);" d="M966.674,740.821
			c0,0,85.877-123.403,181.852-154.849c23.794-7.796,44.239,18.38,31.01,39.638C1152.671,668.777,1093.225,728.228,966.674,740.821z
			"/>
		
			<linearGradient id="SVGID_00000115508787391956076340000011455071157758360997_" gradientUnits="userSpaceOnUse" x1="-903.5742" y1="672.8077" x2="-725.9205" y2="672.8077" gradientTransform="matrix(0.9876 0.1568 -0.1568 0.9876 1980.7242 132.2967)">
			<stop  offset="0" style="stop-color:#B37CFF"/>
			<stop  offset="0.7717" style="stop-color:#E88FEC"/>
			<stop  offset="1" style="stop-color:#F895E7"/>
		</linearGradient>
		<path style="opacity:0.5;fill:url(#SVGID_00000115508787391956076340000011455071157758360997_);" d="M1170.423,604.888
			c-7.365,6.7-14.914,13.114-22.556,19.45c-3.854,3.122-7.709,6.244-11.597,9.325c-3.918,3.04-7.798,6.133-11.75,9.13
			c-15.773,12.036-31.97,23.518-48.532,34.445c-8.228,5.547-16.708,10.705-25.092,16.01l-12.789,7.614
			c-2.135,1.264-4.258,2.548-6.413,3.776l-6.508,3.612c-17.22,9.877-35.094,18.557-53.07,26.942
			c-0.627,0.292-1.372,0.021-1.664-0.605c-0.288-0.618-0.029-1.351,0.579-1.652l0.034-0.017l13.292-6.567l6.644-3.283
			c2.198-1.126,4.363-2.32,6.547-3.476l13.093-6.947c4.323-2.392,8.601-4.867,12.903-7.296l6.444-3.659l6.36-3.806l12.712-7.623
			c8.333-5.312,16.762-10.474,24.94-16.027c8.272-5.408,16.386-11.052,24.506-16.688l12.047-8.641l11.918-8.819
			c3.97-2.944,7.868-5.983,11.805-8.97c3.907-3.027,7.781-6.095,11.655-9.164c7.716-6.167,15.393-12.427,22.803-18.915l0.019-0.016
			c0.521-0.456,1.312-0.403,1.767,0.117C1170.973,603.651,1170.926,604.43,1170.423,604.888z"/>
	</g>
	
		<linearGradient id="SVGID_00000103961257375297771680000006680249703264728708_" gradientUnits="userSpaceOnUse" x1="46.9835" y1="403.8028" x2="1031.6646" y2="403.8028">
		<stop  offset="0" style="stop-color:#B37CFF"/>
		<stop  offset="1" style="stop-color:#F895E7"/>
	</linearGradient>
	<path style="opacity:0.26;fill:url(#SVGID_00000103961257375297771680000006680249703264728708_);" d="M303.486,117.804
		C245.639,185.014,44.889,110.348,47,234.263c2.472,145.094,199.772,187.783,135.886,289.76s6.662,216.283,263.388,214.13
		C703,736,1115.996,608.014,1016.498,469.007C917,330,983.293,322.869,988.146,261.435C993,200,942.663,65.244,743.831,177.622
		S449.972-52.392,303.486,117.804z"/>
	<g>
		
			<linearGradient id="SVGID_00000056428220461046221030000016685733730777260693_" gradientUnits="userSpaceOnUse" x1="147.9244" y1="386.5268" x2="394.2823" y2="386.5268">
			<stop  offset="0" style="stop-color:#CB236D"/>
			<stop  offset="0.9001" style="stop-color:#59246D"/>
			<stop  offset="1" style="stop-color:#4C246D"/>
		</linearGradient>
		<path style="fill:url(#SVGID_00000056428220461046221030000016685733730777260693_);" d="M323.819,681.619
			c-39.166,7.831-89.182-34.869-105.294-81.518c-16.581-48.006,13.821-68.117,13.586-134.732
			c-0.267-75.672-39.63-87.077-65.668-189.077c-5.874-23.013-39.87-156.189,2.264-181.152
			c38.958-23.081,148.386,43.158,167.565,127.938c13.676,60.452-28.6,85.834-12.454,156.243
			c14.167,61.779,51.402,62.673,65.668,122.277C406.854,574.163,375.244,671.337,323.819,681.619z"/>
		
			<linearGradient id="SVGID_00000175287112376761372010000006335896582556128436_" gradientUnits="userSpaceOnUse" x1="349.8922" y1="223.5325" x2="252.2819" y2="697.0764" gradientTransform="matrix(-1 0 0 1 587.2056 0)">
			<stop  offset="0" style="stop-color:#2B3582"/>
			<stop  offset="1" style="stop-color:#150E42"/>
		</linearGradient>
		<path style="fill:url(#SVGID_00000175287112376761372010000006335896582556128436_);" d="M320.975,699.952
			c10.558-81.531-10.039-207.314-29.177-298.476c-20.72-98.698-44.236-179.205-44.471-180.007l-3.26,0.956
			c0.235,0.8,23.719,81.2,44.412,179.773c19.081,90.897,39.623,216.264,29.126,297.318L320.975,699.952z"/>
	</g>
	<g>
		
			<linearGradient id="SVGID_00000022533448401011899000000016277905593817506712_" gradientUnits="userSpaceOnUse" x1="527.0447" y1="315.8265" x2="121.2681" y2="1029.2787" gradientTransform="matrix(-1 0 0 1 587.2056 0)">
			<stop  offset="0" style="stop-color:#A737D5"/>
			<stop  offset="1" style="stop-color:#EF497A"/>
		</linearGradient>
		<path style="fill:url(#SVGID_00000022533448401011899000000016277905593817506712_);" d="M285.858,711.305
			c51.375-26.769,68.96-118.69,39.757-148.565c-19.732-20.186-48.03,1.046-75.329-19.878
			c-34.855-26.716-9.215-77.032-36.618-142.288c-23.32-55.533-79.259-108.082-111.947-97.3
			C67.504,314.56,49.482,398.302,78.704,448.7c19.004,32.775,48.093,34.384,54.404,64.867c7.323,35.37-28.055,51.5-28.248,85.791
			C104.514,660.954,217.893,746.718,285.858,711.305z"/>
		
			<linearGradient id="SVGID_00000001639030447775500520000005306123752641158830_" gradientUnits="userSpaceOnUse" x1="406.8796" y1="422.9608" x2="342.0319" y2="737.5609" gradientTransform="matrix(-1 0 0 1 587.2056 0)">
			<stop  offset="0" style="stop-color:#2B3582"/>
			<stop  offset="1" style="stop-color:#150E42"/>
		</linearGradient>
		<path style="fill:url(#SVGID_00000001639030447775500520000005306123752641158830_);" d="M258.135,734.845
			c0.307,0,0.618-0.067,0.912-0.211c1.04-0.505,1.474-1.756,0.969-2.796c-68.11-140.347-88.082-303.163-88.276-304.791
			c-0.136-1.148-1.179-1.968-2.325-1.83c-1.147,0.136-1.967,1.177-1.83,2.325c0.195,1.635,20.252,165.15,88.666,306.123
			C256.612,734.411,257.358,734.845,258.135,734.845z"/>
		<path style="fill:#F0F0F0;" d="M118.398,469.213c0.215,0,0.432-0.069,0.614-0.211c0.436-0.34,0.514-0.968,0.174-1.403
			c-21.498-27.596-45.326-69.054-36.748-109.853c5.108-24.298,19.486-36.971,19.631-37.096c0.417-0.361,0.463-0.992,0.102-1.41
			c-0.362-0.418-0.994-0.464-1.411-0.102c-0.611,0.528-15.034,13.244-20.279,38.196c-4.821,22.933-2.293,60.892,37.127,111.492
			C117.806,469.08,118.101,469.213,118.398,469.213z"/>
		<path style="fill:#F0F0F0;" d="M290.49,699.049c0.319,0,0.632-0.152,0.826-0.435c33.039-48.219,44.306-85.477,33.486-110.737
			c-9.619-22.459-33.907-26.639-34.151-26.679c-0.546-0.085-1.058,0.282-1.147,0.827c-0.088,0.544,0.281,1.059,0.826,1.147
			c0.233,0.038,23.472,4.067,32.644,25.516c10.514,24.591-0.692,61.194-33.308,108.795c-0.313,0.456-0.196,1.078,0.259,1.391
			C290.099,698.992,290.296,699.049,290.49,699.049z"/>
	</g>
	<g>
		<g>
			
				<linearGradient id="SVGID_00000062873683571000451000000005053914257550474150_" gradientUnits="userSpaceOnUse" x1="564.0187" y1="707.3893" x2="731.1212" y2="206.0807">
				<stop  offset="0" style="stop-color:#2B3582"/>
				<stop  offset="1" style="stop-color:#150E42"/>
			</linearGradient>
			<path style="fill:url(#SVGID_00000062873683571000451000000005053914257550474150_);" d="M995.491,725.575
				c0,7.189-5.888,13.071-13.084,13.071H274.88c-7.196,0-13.084-5.882-13.084-13.071l-5.887-406.596
				c0-7.189,8.47-21.225,23.993-20.17l691.473-17.892c9.029-0.234,17.759,3.242,24.153,9.615c6.394,6.373,9.892,15.087,9.679,24.107
				L995.491,725.575z"/>
			
				<linearGradient id="SVGID_00000148635507263466864260000005202639800000379297_" gradientUnits="userSpaceOnUse" x1="616.8118" y1="836.8813" x2="648.4006" y2="-11.4927">
				<stop  offset="0.1571" style="stop-color:#F7D845"/>
				<stop  offset="1" style="stop-color:#D93C65"/>
			</linearGradient>
			<path style="fill:url(#SVGID_00000148635507263466864260000005202639800000379297_);" d="M982.574,713.035
				c0,6.808-5.57,12.378-12.378,12.378H291.943c-6.808,0-12.378-5.57-12.378-12.378l-5.556-369.112
				c0.654-22.212,20.128-30.195,31.933-29.724l662.713-17.78c6.343-0.17,12.476,2.274,16.969,6.755s6.964,10.614,6.805,16.958
				L982.574,713.035z"/>
			<g>
				<path style="fill:#FFFFFF;" d="M286.894,536.866c-0.545,0-0.991-0.439-1-0.985l-0.439-29.935
					c-0.008-0.552,0.433-1.007,0.985-1.015c0.528,0.035,1.006,0.434,1.015,0.985l0.439,29.935c0.008,0.552-0.433,1.007-0.985,1.015
					C286.904,536.866,286.899,536.866,286.894,536.866z"/>
				<path style="fill:#FFFFFF;" d="M285.817,463.512c-0.545,0-0.991-0.438-1-0.985l-1.684-114.648
					c0.035-7.657,2.393-13.773,7.011-18.198c8.401-8.05,21.549-7.647,22.103-7.623l211.634-5.679
					c0.566-0.027,1.011,0.42,1.026,0.973c0.015,0.552-0.42,1.012-0.973,1.026l-211.692,5.679
					c-0.591-0.017-12.919-0.401-20.715,7.069c-4.211,4.035-6.363,9.669-6.395,16.744l1.684,114.629
					c0.008,0.552-0.433,1.007-0.985,1.015C285.827,463.512,285.822,463.512,285.817,463.512z"/>
			</g>
			<path style="opacity:0.37;fill:#FFFFFF;" d="M309.446,692.558c0.71-30.508,0.446-300.659-1.305-323.991
				c-1.75-23.332,34.587-27.708,90.376-30.333c55.789-2.626,526.5-13.021,538.62-14.004c27.243-2.209,32.881,38.51,30.156,126.909
				c-2.048,66.413-5.441,175.817-7.003,226.129c-0.465,14.981-12.709,26.867-27.697,26.908
				c-113.273,0.311-547.413,1.556-576.314,2.416C323.02,707.584,309.164,704.655,309.446,692.558z"/>
		</g>
		
			<linearGradient id="SVGID_00000132054163139703404550000000445418239964219289_" gradientUnits="userSpaceOnUse" x1="952.0292" y1="664.6198" x2="209.8278" y2="845.1552">
			<stop  offset="0" style="stop-color:#2B3582"/>
			<stop  offset="1" style="stop-color:#150E42"/>
		</linearGradient>
		<path style="fill:url(#SVGID_00000132054163139703404550000000445418239964219289_);" d="M1045.383,759.399H226.248
			c-4.128,0-7.505-3.377-7.505-7.505v-20.715c0-4.128,3.377-7.505,7.505-7.505h819.135c4.128,0,7.505,3.377,7.505,7.505v20.715
			C1052.888,756.022,1049.511,759.399,1045.383,759.399z"/>
	</g>
	
		<linearGradient id="SVGID_00000010275671351738500680000007231719152816891549_" gradientUnits="userSpaceOnUse" x1="644.2169" y1="199.6348" x2="541.0792" y2="872.4098">
		<stop  offset="0" style="stop-color:#53D8FF"/>
		<stop  offset="0.2057" style="stop-color:#4DB9FD"/>
		<stop  offset="1" style="stop-color:#3840F7"/>
	</linearGradient>
	<path style="fill:url(#SVGID_00000010275671351738500680000007231719152816891549_);" d="M788.605,148.532l-390.003-2.388
		c-12.817-0.079-23.068,10.628-22.433,23.429L403,723.674h434l24.097-495.059L788.605,148.532z"/>
	
		<linearGradient id="SVGID_00000172420954969467892130000003284225538784784280_" gradientUnits="userSpaceOnUse" x1="832.1683" y1="150.1469" x2="739.8342" y2="261.7747" gradientTransform="matrix(0.9994 0.0343 -0.0343 0.9994 5.8709 1.1123)">
		<stop  offset="0" style="stop-color:#53D8FF"/>
		<stop  offset="0.2057" style="stop-color:#4DB9FD"/>
		<stop  offset="1" style="stop-color:#3840F7"/>
	</linearGradient>
	<path style="fill:url(#SVGID_00000172420954969467892130000003284225538784784280_);" d="M804.822,226.242
		c-12.704-0.447-22.471-11.396-21.47-24.069l4.181-52.91l73.641,79.028L804.822,226.242z"/>
	<path style="opacity:0.58;fill:#FFFFFF;" d="M766,219H556c-6.075,0-11,4.925-11,11s4.925,11,11,11h210c6.075,0,11-4.925,11-11
		S772.075,219,766,219z"/>
	<path style="opacity:0.58;fill:#FFFFFF;" d="M772.668,269H556.332c-6.258,0-11.332,4.925-11.332,11s5.073,11,11.332,11h216.336
		c6.258,0,11.332-4.925,11.332-11S778.926,269,772.668,269z"/>
	<path style="opacity:0.58;fill:#FFFFFF;" d="M772.668,312H556.332c-6.258,0-11.332,4.925-11.332,11s5.073,11,11.332,11h216.336
		c6.258,0,11.332-4.925,11.332-11S778.926,312,772.668,312z"/>
	<path style="opacity:0.58;fill:#FFFFFF;" d="M772.668,355H556.332c-6.258,0-11.332,4.925-11.332,11s5.073,11,11.332,11h216.336
		c6.258,0,11.332-4.925,11.332-11S778.926,355,772.668,355z"/>
	<path style="opacity:0.58;fill:#FFFFFF;" d="M767.5,422h-315c-9.113,0-16.5,4.925-16.5,11s7.387,11,16.5,11h315
		c9.113,0,16.5-4.925,16.5-11S776.613,422,767.5,422z"/>
	<path style="opacity:0.58;fill:#FFFFFF;" d="M767.5,465h-315c-9.113,0-16.5,4.925-16.5,11s7.387,11,16.5,11h315
		c9.113,0,16.5-4.925,16.5-11S776.613,465,767.5,465z"/>
	<path style="opacity:0.58;fill:#FFFFFF;" d="M767.5,508h-315c-9.113,0-16.5,4.925-16.5,11s7.387,11,16.5,11h315
		c9.113,0,16.5-4.925,16.5-11S776.613,508,767.5,508z"/>
	<path style="opacity:0.58;fill:#FFFFFF;" d="M767.5,575h-315c-9.113,0-16.5,4.925-16.5,11s7.387,11,16.5,11h315
		c9.113,0,16.5-4.925,16.5-11S776.613,575,767.5,575z"/>
	<path style="opacity:0.58;fill:#FFFFFF;" d="M767.5,618h-315c-9.113,0-16.5,4.925-16.5,11s7.387,11,16.5,11h315
		c9.113,0,16.5-4.925,16.5-11S776.613,618,767.5,618z"/>
	<path style="opacity:0.58;fill:#FFFFFF;" d="M767.5,661h-315c-9.113,0-16.5,4.925-16.5,11s7.387,11,16.5,11h315
		c9.113,0,16.5-4.925,16.5-11S776.613,661,767.5,661z"/>
	<g>
		
			<linearGradient id="SVGID_00000034809455500613328410000010172113802904019332_" gradientUnits="userSpaceOnUse" x1="481.8491" y1="188.6563" x2="315.3678" y2="471.6751">
			<stop  offset="0" style="stop-color:#FDF53F"/>
			<stop  offset="1" style="stop-color:#D93C65"/>
		</linearGradient>
		<path style="fill:url(#SVGID_00000034809455500613328410000010172113802904019332_);" d="M482.599,377H365.4
			c-21.208,0-38.4-17.193-38.4-38.401V235.4c0-21.208,17.193-38.4,38.4-38.4h117.199C503.807,197,521,214.193,521,235.4v103.199
			C521,359.807,503.807,377,482.599,377z"/>
		<g>
			<path style="fill:#FFFFFF;" d="M481.005,356.391h-16.316c-3.581,0-6.751-2.315-7.842-5.726l-6.687-20.914
				c-0.794-2.483-3.101-4.167-5.708-4.167h-40.489c-2.613,0-4.924,1.693-5.713,4.184l-6.609,20.875
				c-1.084,3.422-4.26,5.748-7.849,5.748h-16.013c-5.715,0-9.691-5.679-7.737-11.049l41.384-113.688
				c3.005-8.255,10.852-13.749,19.636-13.749h7.609c8.841,0,16.726,5.564,19.689,13.895l40.402,113.6
				C490.669,350.759,486.694,356.391,481.005,356.391z M439.559,294.664l-12.995-42.689c-0.798-2.62-4.516-2.593-5.269,0.04
				c-3.421,11.952-9.607,32.051-12.884,42.628c-1.076,3.473,1.522,6.99,5.157,6.99h20.828
				C438.021,301.633,440.615,298.132,439.559,294.664z"/>
		</g>
		<path style="fill:#FFFFFF;" d="M340,315.5h-1v-83.802c0-10.862,8.836-19.698,19.698-19.698H394.5v1h-35.802
			c-10.31,0-18.698,8.388-18.698,18.698V315.5z"/>
	</g>
	<g>
		<g>
			
				<linearGradient id="SVGID_00000176726882853142974730000003068268076106129846_" gradientUnits="userSpaceOnUse" x1="418.2829" y1="633.6975" x2="472.0163" y2="633.6975" gradientTransform="matrix(1 0 0 1 -142.465 0)">
				<stop  offset="0" style="stop-color:#9CFFFB"/>
				<stop  offset="1" style="stop-color:#9BFFFA"/>
			</linearGradient>
			<path style="fill:url(#SVGID_00000176726882853142974730000003068268076106129846_);" d="M326.486,762.446
				c-1.467,0-2.762-0.944-3.014-2.279l-47.611-252.029c-0.281-1.489,0.842-2.9,2.509-3.151c1.667-0.249,3.246,0.752,3.528,2.241
				l47.611,252.029c0.281,1.489-0.842,2.9-2.509,3.151C326.827,762.434,326.655,762.446,326.486,762.446z"/>
			
				<linearGradient id="SVGID_00000146471622842768325780000014683388174219649953_" gradientUnits="userSpaceOnUse" x1="305.2657" y1="635.3361" x2="367.5136" y2="635.3361" gradientTransform="matrix(1 0 0 1 -142.465 0)">
				<stop  offset="0" style="stop-color:#9CFFFB"/>
				<stop  offset="1" style="stop-color:#9BFFFA"/>
			</linearGradient>
			<path style="fill:url(#SVGID_00000146471622842768325780000014683388174219649953_);" d="M165.865,762.447
				c-0.201,0-0.404-0.018-0.608-0.055c-1.657-0.298-2.73-1.74-2.396-3.22l56.125-248.75c0.334-1.48,1.946-2.446,3.605-2.14
				c1.657,0.298,2.73,1.74,2.396,3.22l-56.125,248.75C168.57,761.55,167.293,762.447,165.865,762.447z"/>
			
				<linearGradient id="SVGID_00000175319111803533176580000006812992532662929805_" gradientUnits="userSpaceOnUse" x1="348.2009" y1="567.6871" x2="435.6835" y2="567.6871" gradientTransform="matrix(1 0 0 1 -142.465 0)">
				<stop  offset="0" style="stop-color:#9CFFFB"/>
				<stop  offset="1" style="stop-color:#9BFFFA"/>
			</linearGradient>
			<path style="fill:url(#SVGID_00000175319111803533176580000006812992532662929805_);" d="M290.158,570.421h-81.361
				c-1.69,0-3.061-1.224-3.061-2.734c0-1.51,1.37-2.734,3.061-2.734h81.361c1.69,0,3.061,1.224,3.061,2.734
				C293.219,569.198,291.848,570.421,290.158,570.421z"/>
			
				<linearGradient id="SVGID_00000116211934796463300840000016187849686191642513_" gradientUnits="userSpaceOnUse" x1="349.7893" y1="567.6871" x2="434.0973" y2="567.6871" gradientTransform="matrix(1 0 0 1 -142.465 0)">
				<stop  offset="0" style="stop-color:#9CFFFB"/>
				<stop  offset="1" style="stop-color:#9BFFFA"/>
			</linearGradient>
			<path style="fill:url(#SVGID_00000116211934796463300840000016187849686191642513_);" d="M288.683,570.421h-78.409
				c-1.629,0-2.95-1.224-2.95-2.734c0-1.51,1.321-2.734,2.95-2.734h78.409c1.629,0,2.95,1.224,2.95,2.734
				C291.632,569.198,290.312,570.421,288.683,570.421z"/>
			
				<linearGradient id="SVGID_00000147916908333908140430000006040573858221064624_" gradientUnits="userSpaceOnUse" x1="348.2009" y1="613.2575" x2="435.6835" y2="613.2575" gradientTransform="matrix(1 0 0 1 -142.465 0)">
				<stop  offset="0" style="stop-color:#9CFFFB"/>
				<stop  offset="1" style="stop-color:#9BFFFA"/>
			</linearGradient>
			<path style="fill:url(#SVGID_00000147916908333908140430000006040573858221064624_);" d="M290.158,615.992h-81.361
				c-1.69,0-3.061-1.224-3.061-2.734c0-1.51,1.37-2.734,3.061-2.734h81.361c1.69,0,3.061,1.224,3.061,2.734
				C293.219,614.768,291.848,615.992,290.158,615.992z"/>
			
				<linearGradient id="SVGID_00000052786989188687231160000001608867416639283620_" gradientUnits="userSpaceOnUse" x1="338.3105" y1="613.2575" x2="443.0711" y2="613.2575" gradientTransform="matrix(1 0 0 1 -142.465 0)">
				<stop  offset="0" style="stop-color:#9CFFFB"/>
				<stop  offset="1" style="stop-color:#9BFFFA"/>
			</linearGradient>
			<path style="fill:url(#SVGID_00000052786989188687231160000001608867416639283620_);" d="M297.545,615.992h-98.639
				c-1.69,0-3.061-1.224-3.061-2.734c0-1.51,1.37-2.734,3.061-2.734h98.639c1.69,0,3.061,1.224,3.061,2.734
				C300.606,614.768,299.236,615.992,297.545,615.992z"/>
			
				<linearGradient id="SVGID_00000075863152343830023240000002062813197208907172_" gradientUnits="userSpaceOnUse" x1="348.2009" y1="658.8278" x2="435.6835" y2="658.8278" gradientTransform="matrix(1 0 0 1 -142.465 0)">
				<stop  offset="0" style="stop-color:#9CFFFB"/>
				<stop  offset="1" style="stop-color:#9BFFFA"/>
			</linearGradient>
			<path style="fill:url(#SVGID_00000075863152343830023240000002062813197208907172_);" d="M290.158,661.562h-81.361
				c-1.69,0-3.061-1.224-3.061-2.734c0-1.51,1.37-2.734,3.061-2.734h81.361c1.69,0,3.061,1.224,3.061,2.734
				C293.219,660.338,291.848,661.562,290.158,661.562z"/>
			
				<linearGradient id="SVGID_00000040572958429469879120000013404985611843429798_" gradientUnits="userSpaceOnUse" x1="328.3007" y1="658.8278" x2="452.4927" y2="658.8278" gradientTransform="matrix(1 0 0 1 -142.465 0)">
				<stop  offset="0" style="stop-color:#9CFFFB"/>
				<stop  offset="1" style="stop-color:#9BFFFA"/>
			</linearGradient>
			<path style="fill:url(#SVGID_00000040572958429469879120000013404985611843429798_);" d="M306.967,661.562H188.896
				c-1.69,0-3.061-1.224-3.061-2.734c0-1.51,1.37-2.734,3.061-2.734h118.071c1.69,0,3.061,1.224,3.061,2.734
				C310.028,660.338,308.657,661.562,306.967,661.562z"/>
			
				<linearGradient id="SVGID_00000039827399570463510380000010380134282354747811_" gradientUnits="userSpaceOnUse" x1="318.8089" y1="704.3982" x2="435.6835" y2="704.3982" gradientTransform="matrix(1 0 0 1 -142.465 0)">
				<stop  offset="0" style="stop-color:#9CFFFB"/>
				<stop  offset="1" style="stop-color:#9BFFFA"/>
			</linearGradient>
			<path style="fill:url(#SVGID_00000039827399570463510380000010380134282354747811_);" d="M290.158,707.132H179.405
				c-1.69,0-3.061-1.224-3.061-2.734c0-1.51,1.37-2.734,3.061-2.734h110.753c1.69,0,3.061,1.224,3.061,2.734
				C293.219,705.909,291.848,707.132,290.158,707.132z"/>
			
				<linearGradient id="SVGID_00000090265585324724929880000009726995195440041353_" gradientUnits="userSpaceOnUse" x1="318.8089" y1="704.3982" x2="460.1137" y2="704.3982" gradientTransform="matrix(1 0 0 1 -142.465 0)">
				<stop  offset="0" style="stop-color:#9CFFFB"/>
				<stop  offset="1" style="stop-color:#9BFFFA"/>
			</linearGradient>
			<path style="fill:url(#SVGID_00000090265585324724929880000009726995195440041353_);" d="M314.588,707.132H179.405
				c-1.69,0-3.061-1.224-3.061-2.734c0-1.51,1.37-2.734,3.061-2.734h135.183c1.69,0,3.061,1.224,3.061,2.734
				C317.649,705.909,316.278,707.132,314.588,707.132z"/>
		</g>
		<g>
			
				<linearGradient id="SVGID_00000005975538127632764620000012360767987325110963_" gradientUnits="userSpaceOnUse" x1="356.939" y1="560.4428" x2="374.8076" y2="560.4428" gradientTransform="matrix(1 0 0 1 -142.465 0)">
				<stop  offset="0" style="stop-color:#2B3582"/>
				<stop  offset="1" style="stop-color:#150E42"/>
			</linearGradient>
			<path style="fill:url(#SVGID_00000005975538127632764620000012360767987325110963_);" d="M216.961,554.146
				c0,0-1.986,3.13-2.485,11.893c-0.047,0.817,0.6,1.512,1.418,1.512h15.529c0.625,0,1.071-0.613,0.871-1.205
				c-0.91-2.693-3.661-9.26-9.801-13.012L216.961,554.146z"/>
			
				<linearGradient id="SVGID_00000028318823881646700990000011299841824002802839_" gradientUnits="userSpaceOnUse" x1="358.7516" y1="552.1394" x2="365.9985" y2="552.1394" gradientTransform="matrix(1 0 0 1 -142.465 0)">
				<stop  offset="0" style="stop-color:#F9B776"/>
				<stop  offset="1" style="stop-color:#F47960"/>
			</linearGradient>
			<path style="fill:url(#SVGID_00000028318823881646700990000011299841824002802839_);" d="M216.287,548.209l0.878,7.365
				c0.076,0.635,0.574,1.144,1.209,1.217c0.849,0.098,2.084,0.167,3.284-0.031c1.09-0.18,1.875-1.151,1.875-2.257v-7.111
				L216.287,548.209z"/>
			
				<linearGradient id="SVGID_00000141430615690055880530000002449687886047847306_" gradientUnits="userSpaceOnUse" x1="394.9387" y1="560.1571" x2="422.9753" y2="560.1571" gradientTransform="matrix(1 0 0 1 -142.465 0)">
				<stop  offset="0" style="stop-color:#2B3582"/>
				<stop  offset="1" style="stop-color:#150E42"/>
			</linearGradient>
			<path style="fill:url(#SVGID_00000141430615690055880530000002449687886047847306_);" d="M255.383,553.334
				c0,0-2.972,4.62-2.909,10.962c0.015,1.494,1.266,2.683,2.759,2.683h24.118c1.129,0,1.588-1.451,0.664-2.1
				c-4.564-3.205-13.534-9.192-20.022-11.545H255.383z"/>
			
				<linearGradient id="SVGID_00000020388700289704518090000018434157971134900619_" gradientUnits="userSpaceOnUse" x1="395.3647" y1="548.9215" x2="402.5716" y2="548.9215" gradientTransform="matrix(1 0 0 1 -142.465 0)">
				<stop  offset="0" style="stop-color:#F9B776"/>
				<stop  offset="1" style="stop-color:#F47960"/>
			</linearGradient>
			<path style="fill:url(#SVGID_00000020388700289704518090000018434157971134900619_);" d="M252.9,545.381l1.873,9.096
				c0.21,1.017,1.205,1.702,2.219,1.475c0.616-0.138,1.343-0.401,2.12-0.887c0.738-0.462,1.113-1.34,0.962-2.198l-1.938-11.019
				L252.9,545.381z"/>
			
				<linearGradient id="SVGID_00000034805568911145904940000011065462101194333327_" gradientUnits="userSpaceOnUse" x1="354.2488" y1="484.9937" x2="403.3812" y2="484.9937" gradientTransform="matrix(1 0 0 1 -142.465 0)">
				<stop  offset="0" style="stop-color:#2B3582"/>
				<stop  offset="1" style="stop-color:#150E42"/>
			</linearGradient>
			<path style="fill:url(#SVGID_00000034805568911145904940000011065462101194333327_);" d="M219.728,418.917
				c0,0-6.514,5.743-7.74,12.652c-1.226,6.909,3.473,119.212,3.473,119.212s6.514,1.084,9.872-0.951c0,0,3.983-72.883,7.01-89.725
				c0,0,15.876,75.498,20.275,89.139c0,0,6.275,0.763,8.299-0.431c0,0-4.159-97.866-9.384-115.265L219.728,418.917z"/>
			<path style="fill:#666694;" d="M232.153,457.779c-0.333,0-0.637-0.224-0.725-0.56l-2.693-10.331l-5.731-3.676
				c-0.349-0.224-0.45-0.688-0.226-1.036c0.224-0.348,0.689-0.45,1.036-0.226l5.978,3.834c0.159,0.102,0.273,0.259,0.321,0.441
				l2.767,10.614c0.105,0.401-0.136,0.811-0.537,0.915C232.279,457.772,232.215,457.779,232.153,457.779z"/>
			
				<linearGradient id="SVGID_00000111880617109456121170000013651548842461820838_" gradientUnits="userSpaceOnUse" x1="296.415" y1="332.2278" x2="237.6311" y2="427.122">
				<stop  offset="0" style="stop-color:#FDF53F"/>
				<stop  offset="1" style="stop-color:#D93C65"/>
			</linearGradient>
			<path style="fill:url(#SVGID_00000111880617109456121170000013651548842461820838_);" d="M284.011,354.027
				c-27.422-2.276-34.589,3.398-34.589,3.398l13.178,20.804c0,0,26.945-0.532,46.252-15.413c-3.613-3.891-6.123-8.192-7.732-11.541
				C296.14,353.345,290.407,354.558,284.011,354.027z"/>
			
				<linearGradient id="SVGID_00000057145286818726205340000018013578235006419596_" gradientUnits="userSpaceOnUse" x1="323.2918" y1="325.0132" x2="280.1418" y2="419.6114">
				<stop  offset="0" style="stop-color:#F9B776"/>
				<stop  offset="1" style="stop-color:#F47960"/>
			</linearGradient>
			<path style="fill:url(#SVGID_00000057145286818726205340000018013578235006419596_);" d="M326.953,313.775
				c-0.037-0.879-1.228-1.118-1.601-0.322l-3.499,7.467c-0.676,1.443-0.893,3.058-0.621,4.628l1.227,4.346
				c0.367,2.119-0.186,4.291-1.53,5.971c-3.215,4.019-10.062,11.36-19.81,15.411c1.609,3.349,4.119,7.649,7.732,11.541
				c7.084-5.46,13.142-12.849,16.46-22.856c1.59-0.488,2.652-1.986,2.589-3.648L326.953,313.775z"/>
			
				<linearGradient id="SVGID_00000069364399864150858650000003311223411105400224_" gradientUnits="userSpaceOnUse" x1="299.7256" y1="360.6632" x2="118.3347" y2="534.496">
				<stop  offset="0" style="stop-color:#FDF53F"/>
				<stop  offset="1" style="stop-color:#D93C65"/>
			</linearGradient>
			<path style="fill:url(#SVGID_00000069364399864150858650000003311223411105400224_);" d="M293.037,366.088
				c-9.654-10.402-28.042-15.102-38.688-17.032c-4.664-0.846-9.262,1.75-10.914,6.192c-4.791,12.879-17.821,46.385-20.346,52.143
				c-2.072,4.724-4.235,9.338-5.61,12.223c-0.821,1.723-0.104,3.785,1.616,4.614c8.957,4.317,25.074,9.202,31.608,11.107
				c1.437,0.419,2.868-0.66,2.868-2.157c0-1.27,0.345-2.516,0.998-3.604l24.746-41.238c15.424,17.102,28.931,18.666,39.308,14.923
				c-1.745-5.392-2.886-10.794-3.434-16.207C299.86,384.428,293.037,366.088,293.037,366.088z"/>
			
				<linearGradient id="SVGID_00000021799244260938782690000006830059957845906578_" gradientUnits="userSpaceOnUse" x1="504.2335" y1="343.7319" x2="446.3591" y2="415.7332" gradientTransform="matrix(1 0 0 1 -142.465 0)">
				<stop  offset="0" style="stop-color:#F9B776"/>
				<stop  offset="1" style="stop-color:#F47960"/>
			</linearGradient>
			<path style="fill:url(#SVGID_00000021799244260938782690000006830059957845906578_);" d="M340.527,384.184l-2.767-3.689
				c-8.956,6.151-16.442,7.609-22.571,6.559c0.548,5.412,1.689,10.815,3.434,16.207
				C332.293,398.329,340.527,384.184,340.527,384.184z"/>
			
				<linearGradient id="SVGID_00000053546735332407789170000002049543835745626771_" gradientUnits="userSpaceOnUse" x1="515.2061" y1="352.5517" x2="457.3318" y2="424.5529" gradientTransform="matrix(1 0 0 1 -142.465 0)">
				<stop  offset="0" style="stop-color:#F9B776"/>
				<stop  offset="1" style="stop-color:#F47960"/>
			</linearGradient>
			<path style="fill:url(#SVGID_00000053546735332407789170000002049543835745626771_);" d="M338.576,384.25l15.586,0.608
				l14.35-8.014c-2.06-1.291-13.708,1.348-13.708,1.348s-12.176-1.842-15.472-1.846c-2.737-0.004-2.346,3.932-2.135,5.266
				c0.043,0.272,0.079,0.436,0.079,0.436L338.576,384.25z"/>
			
				<linearGradient id="SVGID_00000064349329676902838420000000294225489291799946_" gradientUnits="userSpaceOnUse" x1="439.1246" y1="300.218" x2="383.073" y2="403.2074" gradientTransform="matrix(1 0 0 1 -142.465 0)">
				<stop  offset="0" style="stop-color:#F9B776"/>
				<stop  offset="1" style="stop-color:#F47960"/>
			</linearGradient>
			<path style="fill:url(#SVGID_00000064349329676902838420000000294225489291799946_);" d="M268.993,329.952l-8.223,20.066
				c0,0,9.448,6.54,17.05,5.917l4.104-18.043L268.993,329.952z"/>
			<g>
				
					<linearGradient id="SVGID_00000075847809707589121290000006767488092041721764_" gradientUnits="userSpaceOnUse" x1="-79.2668" y1="3294.98" x2="-104.0383" y2="3327.7507" gradientTransform="matrix(0.817 -0.5767 0.5767 0.817 -1556.4595 -2418.519)">
					<stop  offset="0" style="stop-color:#F9B776"/>
					<stop  offset="1" style="stop-color:#F47960"/>
				</linearGradient>
				<path style="fill:url(#SVGID_00000075847809707589121290000006767488092041721764_);" d="M282.884,316.272
					c0.188,0.267,5.949,21.078,5.949,21.078l-11.953,3.037l-8.39-18.913C268.49,321.473,279.73,311.805,282.884,316.272z"/>
				
					<linearGradient id="SVGID_00000111149363607454969130000017727349696839080858_" gradientUnits="userSpaceOnUse" x1="-2690.7915" y1="289.4789" x2="-2688.0261" y2="391.7962" gradientTransform="matrix(-1 0 0 1 -2413.0532 0)">
					<stop  offset="0" style="stop-color:#CB236D"/>
					<stop  offset="1" style="stop-color:#4C246D"/>
				</linearGradient>
				<path style="fill:url(#SVGID_00000111149363607454969130000017727349696839080858_);" d="M272.99,324.347l3.637,10.302
					c0.047,0.132,0.109,0.254,0.19,0.369c0.494,0.701,2.369,2.99,4.593,0.928c2.018-1.87,3.888-3.547,5.615-3.852
					c0.775-0.137,1.526,0.336,1.736,1.095c0.523,1.891,1.622,6.174,2.01,10.04c0.079,0.785-0.463,1.494-1.238,1.641
					c-2.335,0.443-7.284,1.241-11.416,0.949c-0.56-0.039-1.053-0.375-1.286-0.886c-1.139-2.488-4.628-10.038-5.926-11.992
					c-1.218-1.834-4.204-1.782-5.456-1.671c-0.41,0.036-0.814-0.096-1.124-0.368c-1.095-0.96-3.18-3.412-0.248-6.347
					c0.614-0.614,0.597-1.605-0.035-2.2c-1.259-1.184-2.607-3.285-0.508-5.889c2.133-2.648,4.949-2.226,6.674-1.597
					c0.698,0.255,1.458-0.04,1.838-0.679c0.216-0.363,0.592-0.638,1.245-0.582c0.88,0.076,1.62-0.659,1.604-1.541
					c-0.03-1.696,0.577-3.839,3.519-4.755c5.221-1.625,8.478,3.419,8.8,7.183c0.323,3.764-5.439,5.204-8.826,4.95
					c-2.576-0.193-4.488,2.36-5.257,3.595C272.886,323.433,272.837,323.912,272.99,324.347z"/>
				
					<linearGradient id="SVGID_00000130609315416372386660000015036121106143598224_" gradientUnits="userSpaceOnUse" x1="-115.5475" y1="3320.9316" x2="-95.6786" y2="3300.5466" gradientTransform="matrix(0.817 -0.5767 0.5767 0.817 -1556.4595 -2418.519)">
					<stop  offset="0" style="stop-color:#F9B776"/>
					<stop  offset="1" style="stop-color:#F47960"/>
				</linearGradient>
				<path style="fill:url(#SVGID_00000130609315416372386660000015036121106143598224_);" d="M272.266,336.681
					c0,0-0.843-6.534-3.562-6.855c-2.718-0.32-5.364,1.914-2.662,5.582C269.404,339.97,272.266,336.681,272.266,336.681z"/>
			</g>
		</g>
	</g>
	<g>
		
			<linearGradient id="SVGID_00000092448339198351841560000008197686999427145917_" gradientUnits="userSpaceOnUse" x1="1003.7982" y1="279.8915" x2="1032.6108" y2="309.9847">
			<stop  offset="0" style="stop-color:#2B3582"/>
			<stop  offset="1" style="stop-color:#150E42"/>
		</linearGradient>
		<path style="fill:url(#SVGID_00000092448339198351841560000008197686999427145917_);" d="M995.767,264.35
			c0,0-7.948,0.42-8.922,16.772c0,0,18.43,16.521,43.324,20.454c1.869,0.295-2.613-12.758-3.286-14.526
			C1023.677,278.636,1013.581,273.217,995.767,264.35z"/>
		
			<linearGradient id="SVGID_00000028315917909546639280000003486260215991134888_" gradientUnits="userSpaceOnUse" x1="959.3271" y1="250.0408" x2="989.3271" y2="137.041">
			<stop  offset="0" style="stop-color:#53D8FF"/>
			<stop  offset="1" style="stop-color:#3840F7"/>
		</linearGradient>
		<path style="fill:url(#SVGID_00000028315917909546639280000003486260215991134888_);" d="M906.258,245.123h16.772
			c0,0,51.477-56.852,85.24-62.587c0,0,23.502,30-1.252,86.054c-1.991,4.509-7.561,6.513-11.715,3.859
			c-1.242-0.794-2.135-1.857-2.677-3.191l1.991-47.861c0,0-43.91,38.405-51.543,45.816
			C935.442,274.625,896.646,270.107,906.258,245.123z"/>
		
			<linearGradient id="SVGID_00000035517831203875291270000017500140236693062816_" gradientUnits="userSpaceOnUse" x1="1042.0198" y1="355.4255" x2="1096.52" y2="395.4256">
			<stop  offset="0" style="stop-color:#2B3582"/>
			<stop  offset="1" style="stop-color:#150E42"/>
		</linearGradient>
		<path style="fill:url(#SVGID_00000035517831203875291270000017500140236693062816_);" d="M1068.407,364.487
			c-7.028-6.158-18.227-13.069-34.393-15.051l-5.467,3.344c0,0,3.486,5.142,9.855,10.574c5.854,3.4,14.892,8.005,22.385,9.003
			C1068.072,373.328,1069.147,368.925,1068.407,364.487z"/>
		
			<linearGradient id="SVGID_00000181810047941763086100000002793654437051835298_" gradientUnits="userSpaceOnUse" x1="1012.0833" y1="285.4643" x2="1049.0834" y2="175.4641">
			<stop  offset="0" style="stop-color:#2B3582"/>
			<stop  offset="1" style="stop-color:#150E42"/>
		</linearGradient>
		<path style="fill:url(#SVGID_00000181810047941763086100000002793654437051835298_);" d="M1026.883,287.049
			c-4.33,1.401-6.234,7.536-17.221,3.479c-10.63-3.925-18.531-8.986-22.597-11.905c-0.091,0.791-0.167,1.617-0.22,2.498
			c0,0,19.432,18.483,44.327,22.415c1.869,0.295,3.35-1.57,2.676-3.339C1032.639,297.026,1030.46,292.214,1026.883,287.049z"/>
		
			<linearGradient id="SVGID_00000114770955037576060640000006164208323651338430_" gradientUnits="userSpaceOnUse" x1="1076.9495" y1="307.2826" x2="1113.9497" y2="197.282">
			<stop  offset="0" style="stop-color:#2B3582"/>
			<stop  offset="1" style="stop-color:#150E42"/>
		</linearGradient>
		<path style="fill:url(#SVGID_00000114770955037576060640000006164208323651338430_);" d="M1073.701,369.746
			c-1.385-1.575-3.154-3.384-5.295-5.259c0.74,4.438-0.334,8.841-7.62,7.87c-7.493-0.998-16.532-5.603-22.385-9.003
			c7.336,6.257,18.499,12.898,32.588,12.508C1074.119,375.776,1075.769,372.096,1073.701,369.746z"/>
		
			<linearGradient id="SVGID_00000018918280199998583180000014587110328643642815_" gradientUnits="userSpaceOnUse" x1="1042.8394" y1="279.5434" x2="928.6707" y2="322.607">
			<stop  offset="0" style="stop-color:#53D8FF"/>
			<stop  offset="1" style="stop-color:#3840F7"/>
		</linearGradient>
		<path style="fill:url(#SVGID_00000018918280199998583180000014587110328643642815_);" d="M906.872,257.259l78.541,0.85
			c0,0,44.853,37.109,52.988,93.695c0,0,1.35,4.162-6.757,4.874c0,0-27.118-17.711-44.8-49.025
			c-21.681-38.395-56.56-24.688-56.56-24.688c-42.312,14.423-56.799-6.993-57.152-12.06L906.872,257.259z"/>
		
			<linearGradient id="SVGID_00000091708571699209994010000014767713240359289496_" gradientUnits="userSpaceOnUse" x1="953.9688" y1="207.5937" x2="916.9688" y2="251.5937">
			<stop  offset="0" style="stop-color:#F9B776"/>
			<stop  offset="1" style="stop-color:#F47960"/>
		</linearGradient>
		<path style="fill:url(#SVGID_00000091708571699209994010000014767713240359289496_);" d="M908.727,193.99
			c0,0,8.455,42.373,49.883,59.137l14.736-1.737l3.477,5.544l-34.567,1.101c0,0-29.547-11.703-45.202-43.592
			C896.537,213.39,887.916,195.59,908.727,193.99z"/>
		
			<linearGradient id="SVGID_00000056388345651374804790000006166674343267254171_" gradientUnits="userSpaceOnUse" x1="911.5679" y1="160.121" x2="723.91" y2="405.5194">
			<stop  offset="0" style="stop-color:#FDF53F"/>
			<stop  offset="1" style="stop-color:#D93C65"/>
		</linearGradient>
		<path style="fill:url(#SVGID_00000056388345651374804790000006166674343267254171_);" d="M913.258,256.566
			c0,0-9.615-26.136-11.681-51.532c0,0,7.034-6.045,11.43-8.653c1.424-0.845,1.961-2.631,1.242-4.122
			c-3.232-6.696-22.78-32.989-24.244-33.355c-7.959-1.986-40.6-17.506-63.589,13.939c-9.866,13.495,1.958,55.039,46.718,98.061
			l1.486,0.284c5.018,0.96,10.213,0.197,14.743-2.165L913.258,256.566z"/>
		
			<linearGradient id="SVGID_00000085937981243356091910000014299612861104530614_" gradientUnits="userSpaceOnUse" x1="910.8251" y1="247.6285" x2="984.7825" y2="146.4509">
			<stop  offset="0" style="stop-color:#F9B776"/>
			<stop  offset="1" style="stop-color:#F47960"/>
		</linearGradient>
		<path style="fill:url(#SVGID_00000085937981243356091910000014299612861104530614_);" d="M876.209,210.762
			c0,0,26.713,31.63,60.866,36.254c0,0,8.826-8.047,15.39-5.174c6.563,2.873,15.563,15.554,15.563,15.554h-43.852
			c0,0-41.464-1.461-62.184-26.605C863.659,221.993,868.652,216.737,876.209,210.762z"/>
		
			<linearGradient id="SVGID_00000021835368883514537470000011194030359258400166_" gradientUnits="userSpaceOnUse" x1="865.5834" y1="163.7829" x2="868.3076" y2="139.2653">
			<stop  offset="0" style="stop-color:#F9B776"/>
			<stop  offset="1" style="stop-color:#F47960"/>
		</linearGradient>
		<path style="fill:url(#SVGID_00000021835368883514537470000011194030359258400166_);" d="M860.625,136.72l-5.845,19.494
			c-0.268,0.893,0.063,1.86,0.832,2.387c2.814,1.927,10.169,5.76,20.258,2.035c1.154-0.426,1.945-1.504,2.045-2.73l1.386-16.982
			L860.625,136.72z"/>
		<g>
			
				<linearGradient id="SVGID_00000031926497788664991990000013201401459732040088_" gradientUnits="userSpaceOnUse" x1="880.1133" y1="142.3963" x2="868.1061" y2="102.7935">
				<stop  offset="0" style="stop-color:#F9B776"/>
				<stop  offset="1" style="stop-color:#F47960"/>
			</linearGradient>
			<path style="fill:url(#SVGID_00000031926497788664991990000013201401459732040088_);" d="M894.85,120.933
				c0,0-2.874,20.208-10.636,26.422c-7.763,6.214-22.887,1.535-27.995-13.699l10.178-26.048L894.85,120.933z"/>
			
				<linearGradient id="SVGID_00000041274097781657374000000011762144819281040531_" gradientUnits="userSpaceOnUse" x1="869.278" y1="69.679" x2="880.4416" y2="133.3525">
				<stop  offset="0" style="stop-color:#2B3582"/>
				<stop  offset="1" style="stop-color:#150E42"/>
			</linearGradient>
			<path style="fill:url(#SVGID_00000041274097781657374000000011762144819281040531_);" d="M865.25,124.464
				c0.591,0.19,1.209-0.188,1.301-0.802c0.28-1.865,0.98-5.557,2.396-8.072c0,0-0.741-2.651,6.7,1.354
				c7.441,4.005,18.618,9.889,25.198,6.385c6.415-3.416,12.914-20.606-4.041-17.421c-0.645,0.121-1.238-0.393-1.19-1.047
				c0.208-2.825-0.072-9.325-6.654-11.411c-6.159-1.952-9.532,0.828-10.921,2.507c-0.409,0.494-1.168,0.484-1.557-0.025
				c-1.845-2.409-6.856-7.536-14.233-4.285c-6.076,2.678-7.021,6.42-6.921,8.752c0.033,0.756-0.734,1.268-1.421,0.951
				c-1.861-0.857-4.854-1.302-7.721,2.29c-3.964,4.966,1.701,9.273,3.4,10.402c0.278,0.185,0.451,0.492,0.454,0.826
				c0.016,2.583,0.418,13.849,6.065,20.204c0.489,0.55,1.393,0.389,1.677-0.29l4.348-10.359c0.202-0.481,0.738-0.728,1.235-0.568
				L865.25,124.464z"/>
			
				<linearGradient id="SVGID_00000054232202351788050740000005477236750593863553_" gradientUnits="userSpaceOnUse" x1="867.6763" y1="146.167" x2="855.6691" y2="106.5643">
				<stop  offset="0" style="stop-color:#F9B776"/>
				<stop  offset="1" style="stop-color:#F47960"/>
			</linearGradient>
			<path style="fill:url(#SVGID_00000054232202351788050740000005477236750593863553_);" d="M865.342,126.567
				c0,0-2.655-10.813-6.688-7.303c-4.033,3.511,1.051,11.238,5.671,12.711L865.342,126.567z"/>
		</g>
		
			<linearGradient id="SVGID_00000053519041136758984350000013129734071721207456_" gradientUnits="userSpaceOnUse" x1="965.82" y1="224.7373" x2="1022.0978" y2="224.7373">
			<stop  offset="0" style="stop-color:#2B3582"/>
			<stop  offset="1" style="stop-color:#150E42"/>
		</linearGradient>
		<path style="fill:url(#SVGID_00000053519041136758984350000013129734071721207456_);" d="M965.82,259.85l19.69-65.663
			c0.803-2.679,3.183-4.579,5.973-4.77l26.584-1.819c2.702-0.185,4.712,2.455,3.815,5.01l-22.011,62.707
			c-0.709,2.02-2.523,3.448-4.653,3.663l-26.178,2.907L965.82,259.85z"/>
		
			<linearGradient id="SVGID_00000033362843887117225220000007745256374900222100_" gradientUnits="userSpaceOnUse" x1="1013.0029" y1="200.8705" x2="978.753" y2="235.6205">
			<stop  offset="0" style="stop-color:#FDF53F"/>
			<stop  offset="1" style="stop-color:#D93C65"/>
		</linearGradient>
		<path style="fill:url(#SVGID_00000033362843887117225220000007745256374900222100_);" d="M1002.133,216.442
			c-1.47,2.967-4.009,4.706-5.67,3.882c-1.662-0.823-1.817-3.896-0.347-6.863c1.47-2.967,4.009-4.705,5.67-3.882
			C1003.448,210.402,1003.603,213.475,1002.133,216.442z"/>
		
			<linearGradient id="SVGID_00000031166252042349494990000008682334973392702642_" gradientUnits="userSpaceOnUse" x1="972.6506" y1="249.3378" x2="927.6505" y2="261.6711">
			<stop  offset="0" style="stop-color:#2B3582"/>
			<stop  offset="1" style="stop-color:#150E42"/>
		</linearGradient>
		<path style="fill:url(#SVGID_00000031166252042349494990000008682334973392702642_);" d="M969.039,261.886
			c-0.043,0-0.086-0.001-0.128-0.004l-55.779-2.819c-1.379-0.069-2.44-1.244-2.371-2.623c0.07-1.379,1.249-2.463,2.623-2.371
			l55.779,2.819c1.379,0.069,2.44,1.244,2.371,2.622C971.466,260.848,970.362,261.886,969.039,261.886z"/>
		
			<linearGradient id="SVGID_00000021829798679722793680000016188187488630152621_" gradientUnits="userSpaceOnUse" x1="936.7365" y1="127.6609" x2="869.7364" y2="241.6609">
			<stop  offset="0" style="stop-color:#53D8FF"/>
			<stop  offset="1" style="stop-color:#3840F7"/>
		</linearGradient>
		<path style="fill:url(#SVGID_00000021829798679722793680000016188187488630152621_);" d="M901.576,205.535c0,0-0.001,0-0.002,0
			c-0.275-0.001-0.499-0.226-0.498-0.502c0.038-11.648-4.457-27.106-4.502-27.262c-0.078-0.265,0.074-0.543,0.339-0.62
			c0.268-0.079,0.543,0.074,0.62,0.339c0.046,0.156,4.582,15.755,4.543,27.547C902.075,205.313,901.852,205.535,901.576,205.535z"/>
		
			<linearGradient id="SVGID_00000036244335413925546910000009784043741485487752_" gradientUnits="userSpaceOnUse" x1="916.2172" y1="115.6014" x2="849.2171" y2="229.6014">
			<stop  offset="0" style="stop-color:#53D8FF"/>
			<stop  offset="1" style="stop-color:#3840F7"/>
		</linearGradient>
		<path style="fill:url(#SVGID_00000036244335413925546910000009784043741485487752_);" d="M876.209,211.262
			c-0.148,0-0.294-0.065-0.393-0.19c-0.123-0.155-12.326-15.67-16.524-26.307c-0.102-0.257,0.024-0.547,0.281-0.648
			c0.255-0.104,0.548,0.024,0.648,0.281c4.144,10.501,16.258,25.9,16.38,26.055c0.171,0.217,0.134,0.531-0.083,0.702
			C876.427,211.227,876.317,211.262,876.209,211.262z"/>
		
			<linearGradient id="SVGID_00000134230778514687749080000000165167857058898085_" gradientUnits="userSpaceOnUse" x1="908.7904" y1="111.2368" x2="841.7909" y2="225.2359">
			<stop  offset="0" style="stop-color:#53D8FF"/>
			<stop  offset="1" style="stop-color:#3840F7"/>
		</linearGradient>
		<path style="fill:url(#SVGID_00000134230778514687749080000000165167857058898085_);" d="M859.061,234.987l-0.372-0.159
			c-17.669-7.565-28.579-28.655-28.687-28.867c-0.126-0.246-0.027-0.548,0.218-0.673c0.248-0.123,0.548-0.028,0.673,0.218
			c0.105,0.208,10.706,20.686,27.82,28.241l1.791-2.531c0.161-0.226,0.474-0.277,0.697-0.119c0.226,0.159,0.278,0.472,0.119,0.697
			L859.061,234.987z"/>
	</g>
	<g>
		
			<linearGradient id="SVGID_00000129913371110442429170000010145236373094596773_" gradientUnits="userSpaceOnUse" x1="738.8223" y1="489.1358" x2="984.0782" y2="489.1358">
			<stop  offset="0" style="stop-color:#CB236D"/>
			<stop  offset="1" style="stop-color:#4C246D"/>
		</linearGradient>
		<path style="fill:url(#SVGID_00000129913371110442429170000010145236373094596773_);" d="M738.823,564.165
			c0,0-1.148-138.181,101.907-148.543c103.055-10.361,167.068,34.368,135.061,74.503c-32.006,40.135-80.133,75.786-123.069,46.96
			C809.785,508.261,764.861,508.069,738.823,564.165z"/>
		<path style="fill:#FFFFFF;" d="M934.365,475.8c-0.182,0-0.367-0.05-0.532-0.154c-4.686-2.952-9.512-5.71-14.344-8.198
			c-0.491-0.252-0.684-0.855-0.431-1.347c0.253-0.49,0.856-0.686,1.347-0.431c4.883,2.514,9.76,5.301,14.495,8.284
			c0.467,0.294,0.607,0.911,0.313,1.379C935.022,475.635,934.697,475.8,934.365,475.8z"/>
		<path style="fill:#FFFFFF;" d="M910.02,462.815c-0.135,0-0.272-0.027-0.403-0.085c-15.271-6.743-31.225-11.25-47.418-13.395
			c-0.547-0.072-0.933-0.575-0.86-1.123c0.072-0.546,0.581-0.929,1.122-0.859c16.381,2.17,32.519,6.729,47.963,13.548
			c0.505,0.224,0.734,0.813,0.511,1.319C910.77,462.592,910.404,462.815,910.02,462.815z"/>
		<path style="fill:#FFFFFF;" d="M808.008,451.533c-0.449,0-0.857-0.305-0.97-0.76c-0.133-0.536,0.194-1.078,0.73-1.211
			c0.18-0.045,18.279-4.453,41.406-3.634c0.552,0.02,0.984,0.482,0.964,1.034c-0.019,0.552-0.467,1.023-1.035,0.964
			c-22.832-0.797-40.678,3.533-40.855,3.577C808.168,451.523,808.087,451.533,808.008,451.533z"/>
		<path style="fill:#FFFFFF;" d="M913.561,487.029c-0.185,0-0.371-0.051-0.538-0.157c-6.167-3.944-13.309-7.287-21.226-9.937
			c-0.523-0.175-0.806-0.742-0.631-1.266c0.176-0.522,0.74-0.806,1.266-0.631c8.072,2.701,15.362,6.115,21.668,10.147
			c0.465,0.298,0.602,0.916,0.304,1.382C914.214,486.866,913.891,487.029,913.561,487.029z"/>
		<path style="fill:#FFFFFF;" d="M876.655,472.86c-0.067,0-0.135-0.007-0.203-0.021c-33.151-6.848-66.495-2.025-66.829-1.976
			c-0.546,0.07-1.055-0.296-1.136-0.842c-0.081-0.547,0.296-1.056,0.842-1.137c0.336-0.05,34.032-4.923,67.527,1.995
			c0.541,0.112,0.889,0.641,0.777,1.182C877.536,472.535,877.119,472.86,876.655,472.86z"/>
		<path style="fill:#FFFFFF;" d="M920.771,512.835c-0.209,0-0.42-0.066-0.6-0.2c-4.616-3.469-9.997-6.576-15.993-9.234
			c-0.505-0.224-0.733-0.814-0.509-1.319c0.224-0.505,0.815-0.734,1.319-0.509c6.135,2.72,11.647,5.903,16.384,9.463
			c0.442,0.332,0.531,0.959,0.199,1.4C921.375,512.697,921.075,512.835,920.771,512.835z"/>
		<path style="fill:#FFFFFF;" d="M893.419,499.252c-0.102,0-0.205-0.016-0.307-0.048c-13.49-4.35-29.418-7.007-47.342-7.899
			c-0.552-0.027-0.977-0.497-0.949-1.049c0.027-0.551,0.506-0.97,1.048-0.949c18.099,0.901,34.2,3.591,47.855,7.993
			c0.526,0.17,0.814,0.733,0.645,1.259C894.234,498.982,893.842,499.252,893.419,499.252z"/>
		<path style="fill:#FFFFFF;" d="M810.915,491.911c-0.505,0-0.939-0.381-0.993-0.895c-0.059-0.549,0.339-1.041,0.888-1.1
			c0.097-0.01,9.845-1.03,23.813-0.928c0.552,0.004,0.997,0.455,0.993,1.008c-0.004,0.549-0.451,0.992-1,0.992
			c-0.002,0-0.005,0-0.007,0c-13.861-0.094-23.491,0.906-23.586,0.916C810.986,491.909,810.95,491.911,810.915,491.911z"/>
	</g>
	<g>
		
			<linearGradient id="SVGID_00000165206758581250628330000014942535517657763462_" gradientUnits="userSpaceOnUse" x1="1001.7225" y1="671.5947" x2="993.3028" y2="727.1649">
			<stop  offset="0" style="stop-color:#2B3582"/>
			<stop  offset="1" style="stop-color:#150E42"/>
		</linearGradient>
		<path style="fill:url(#SVGID_00000165206758581250628330000014942535517657763462_);" d="M1021.15,675.851
			c-0.073-0.907-1-1.693-2.569-2.322c1.706-0.941,2.649-1.949,2.569-2.937c-0.241-2.992-9.715-4.669-21.161-3.746
			c-11.445,0.923-20.528,4.096-20.287,7.088c0.073,0.907,1,1.693,2.569,2.323c-1.706,0.94-2.649,1.949-2.569,2.937
			c0.073,0.907,1,1.693,2.569,2.322c-1.706,0.94-2.649,1.949-2.569,2.937c0.073,0.907,1,1.693,2.569,2.323
			c-1.706,0.94-2.649,1.948-2.569,2.937c0.107,1.323,2.022,2.388,5.112,3.086c-0.04,0.978-0.018,2.049,0.078,3.232
			c0.448,5.513,6.648,9.835,14.849,9.835c8.201,0,15.299-5.893,15.38-11.423c0.02-1.355-0.038-2.548-0.161-3.608
			c3.924-1.31,6.314-2.911,6.189-4.464c-0.073-0.907-1-1.693-2.569-2.322c1.706-0.94,2.649-1.949,2.569-2.937
			c-0.073-0.907-1-1.693-2.569-2.322C1020.286,677.848,1021.229,676.84,1021.15,675.851z"/>
		<g>
			
				<linearGradient id="SVGID_00000168078677198387272360000017844212662659066015_" gradientUnits="userSpaceOnUse" x1="998.3982" y1="696.6177" x2="980.4391" y2="762.04">
				<stop  offset="0" style="stop-color:#53D8FF"/>
				<stop  offset="1" style="stop-color:#3840F7"/>
			</linearGradient>
			<path style="fill:url(#SVGID_00000168078677198387272360000017844212662659066015_);" d="M994.693,693.989
				c-3.399,0-6.509-0.25-9.079-0.742c-0.149-0.028-0.247-0.172-0.218-0.322c0.029-0.149,0.172-0.247,0.322-0.218
				c4.021,0.77,9.392,0.94,15.123,0.477c4.69-0.378,9.075-1.135,12.683-2.188c0.146-0.043,0.298,0.041,0.341,0.187
				c0.043,0.146-0.041,0.298-0.187,0.341c-3.643,1.063-8.067,1.827-12.793,2.208C998.756,693.904,996.675,693.989,994.693,693.989z"
				/>
			
				<linearGradient id="SVGID_00000031921034556061891490000010267851784777515913_" gradientUnits="userSpaceOnUse" x1="997.7336" y1="696.4351" x2="979.7745" y2="761.8575">
				<stop  offset="0" style="stop-color:#53D8FF"/>
				<stop  offset="1" style="stop-color:#3840F7"/>
			</linearGradient>
			<path style="fill:url(#SVGID_00000031921034556061891490000010267851784777515913_);" d="M994.75,688.724
				c-4.416,0-8.363-0.415-11.147-1.208c-0.146-0.042-0.231-0.194-0.189-0.34c0.042-0.146,0.193-0.23,0.34-0.189
				c3.967,1.13,10.354,1.48,17.087,0.937c6.66-0.537,12.87-1.888,16.614-3.615c0.138-0.063,0.301-0.003,0.365,0.135
				c0.063,0.138,0.003,0.301-0.135,0.365c-3.799,1.752-10.08,3.122-16.8,3.664C998.788,688.641,996.722,688.724,994.75,688.724z"/>
			
				<linearGradient id="SVGID_00000034058004350889912630000010015430548644807857_" gradientUnits="userSpaceOnUse" x1="996.064" y1="695.9769" x2="978.1049" y2="761.3993">
				<stop  offset="0" style="stop-color:#53D8FF"/>
				<stop  offset="1" style="stop-color:#3840F7"/>
			</linearGradient>
			<path style="fill:url(#SVGID_00000034058004350889912630000010015430548644807857_);" d="M994.694,683.469
				c-4.768,0-8.941-0.488-11.75-1.414c-0.144-0.047-0.223-0.203-0.175-0.347c0.047-0.144,0.202-0.223,0.347-0.175
				c3.909,1.289,10.535,1.712,17.725,1.132c6.659-0.537,12.87-1.888,16.614-3.615c0.138-0.063,0.301-0.003,0.365,0.135
				c0.063,0.138,0.003,0.301-0.135,0.365c-3.8,1.752-10.08,3.122-16.8,3.664C998.755,683.385,996.673,683.469,994.694,683.469z"/>
			
				<linearGradient id="SVGID_00000014633351377546480410000012934686646499630254_" gradientUnits="userSpaceOnUse" x1="995.6168" y1="695.854" x2="977.6578" y2="761.2762">
				<stop  offset="0" style="stop-color:#53D8FF"/>
				<stop  offset="1" style="stop-color:#3840F7"/>
			</linearGradient>
			<path style="fill:url(#SVGID_00000014633351377546480410000012934686646499630254_);" d="M994.73,678.206
				c-3.783,0-7.223-0.306-9.897-0.9c-0.148-0.033-0.242-0.18-0.209-0.328c0.033-0.148,0.18-0.242,0.328-0.209
				c4.022,0.894,9.813,1.125,15.888,0.635c6.6-0.532,12.779-1.869,16.529-3.576c0.138-0.063,0.301-0.002,0.364,0.136
				c0.063,0.138,0.002,0.301-0.136,0.364c-3.805,1.732-10.053,3.087-16.713,3.624C998.78,678.123,996.709,678.206,994.73,678.206z"
				/>
		</g>
		
			<linearGradient id="SVGID_00000016762331001128494960000017544953429522145192_" gradientUnits="userSpaceOnUse" x1="975.8503" y1="543.8018" x2="1098.142" y2="769.0764">
			<stop  offset="0" style="stop-color:#53D8FF"/>
			<stop  offset="0.2057" style="stop-color:#4DB9FD"/>
			<stop  offset="1" style="stop-color:#3840F7"/>
		</linearGradient>
		<path style="fill:url(#SVGID_00000016762331001128494960000017544953429522145192_);" d="M972.02,649.302
			c-1.39-4.924-3.751-9.525-6.931-13.533c-6.814-8.587-17.929-26.051-19.297-49.886c-1.99-34.669,28.758-52.027,56.816-49.671
			c28.058,2.356,55.744,23.248,52.713,55.501c-1.865,19.845-12.973,34.898-21.243,43.543c-5.252,5.49-8.998,12.213-11.026,19.534
			c-2.482,8.961-8.388,20.128-22.428,20.809C982.458,676.48,974.913,659.547,972.02,649.302z"/>
		
			<linearGradient id="SVGID_00000097462638583675469800000011252953526650772139_" gradientUnits="userSpaceOnUse" x1="1010.8428" y1="623.1393" x2="1014.8744" y2="751.2356">
			<stop  offset="0" style="stop-color:#FDF53F"/>
			<stop  offset="1" style="stop-color:#D93C65"/>
		</linearGradient>
		<path style="fill:url(#SVGID_00000097462638583675469800000011252953526650772139_);" d="M1005.265,668.686l9.817-63.853
			c0.203-1.319,0.852-2.205,1.45-1.979c0.598,0.226,0.918,1.479,0.716,2.799c-0.005,0.035-0.013,0.078-0.019,0.113l-11.183,63.26
			c-0.084,0.476-0.326,0.776-0.54,0.671C1005.299,669.594,1005.194,669.146,1005.265,668.686z"/>
		
			<linearGradient id="SVGID_00000125587193099184136120000009556928944370871467_" gradientUnits="userSpaceOnUse" x1="988.6343" y1="623.8384" x2="992.666" y2="751.9349">
			<stop  offset="0" style="stop-color:#FDF53F"/>
			<stop  offset="1" style="stop-color:#D93C65"/>
		</linearGradient>
		<path style="fill:url(#SVGID_00000125587193099184136120000009556928944370871467_);" d="M995.074,669.193l-9.817-63.853
			c-0.203-1.319-0.852-2.205-1.45-1.979c-0.598,0.226-0.918,1.479-0.716,2.799c0.005,0.035,0.013,0.079,0.019,0.113l11.183,63.26
			c0.084,0.476,0.326,0.776,0.54,0.671C995.039,670.101,995.144,669.653,995.074,669.193z"/>
		<path style="fill:#FFFFFF;" d="M1015.012,599.35c-0.249-0.401-0.826-0.551-1.289-0.335l-5.466,2.554l-1.897-5.407
			c-0.101-0.282-0.333-0.532-0.665-0.669c-0.629-0.259-1.381-0.027-1.68,0.518l-0.01,0.017l-4.496,8.197l-4.172-11.669l-0.007-0.019
			c-0.102-0.285-0.318-0.541-0.631-0.712c-0.7-0.382-1.624-0.2-2.064,0.406l-6.285,8.652c-0.256,0.355-0.168,0.83,0.221,1.092
			c0.415,0.28,1.014,0.215,1.336-0.145l5.534-6.173l4.982,11.1l0.004,0.008c0.08,0.178,0.23,0.333,0.439,0.43
			c0.468,0.219,1.051,0.068,1.304-0.337l4.808-7.716l1.81,3.902l0.016,0.035c0.013,0.028,0.028,0.056,0.045,0.083
			c0.249,0.401,0.826,0.55,1.288,0.334l6.489-3.032C1015.088,600.251,1015.261,599.751,1015.012,599.35z"/>
		<path style="fill:#FFFFFF;" d="M1034.291,627.278c-0.311,0-0.625-0.096-0.893-0.296c-0.665-0.493-0.804-1.434-0.311-2.099
			c1.664-2.24,3.19-4.56,4.539-6.894c0.415-0.718,1.332-0.963,2.049-0.549s0.963,1.332,0.548,2.049
			c-1.406,2.434-2.996,4.85-4.728,7.183C1035.202,627.069,1034.749,627.278,1034.291,627.278z"/>
		<path style="fill:#FFFFFF;" d="M1042.367,613.417c-0.199,0-0.402-0.04-0.597-0.124c-0.76-0.33-1.108-1.214-0.778-1.974
			c10.329-23.788,1.429-43.737,1.338-43.936c-0.346-0.753-0.015-1.643,0.738-1.988c0.755-0.345,1.644-0.015,1.989,0.738
			c0.395,0.861,9.544,21.377-1.313,46.382C1043.499,613.08,1042.947,613.417,1042.367,613.417z"/>
	</g>
</g>
</svg>
